<?xml version="1.0" encoding="UTF-8"?>
<!DOCTYPE svg PUBLIC "-//W3C//DTD SVG 1.1//EN" "http://www.w3.org/Graphics/SVG/1.1/DTD/svg11.dtd">
<svg version="1.1" xmlns="http://www.w3.org/2000/svg" xmlns:xlink="http://www.w3.org/1999/xlink" x="0" y="0" width="512" height="512" viewBox="0, 0, 512, 512">
  <g id="Layer_1">
    <path d="M206.582,370.452 L207.413,369.865 L209.105,368.665 L210.805,367.462 L212.518,366.271 L214.257,365.097 L216.029,363.948 L217.849,362.829 L219.729,361.745 L221.678,360.704 L223.177,359.962 L224.199,359.485 L225.26,359.016 L226.348,358.561 L227.463,358.121 L228.608,357.698 L229.782,357.292 L230.988,356.906 L232.227,356.538 L233.502,356.191 L234.811,355.867 L236.158,355.564 L237.543,355.286 L238.968,355.033 L239.677,354.919 L239.636,354.925 L240.78,354.757 L243.007,354.486 L245.228,354.286 L247.467,354.149 L249.718,354.073 L251.979,354.054 L254.248,354.088 L256.519,354.173 L258.789,354.306 L261.055,354.482 L263.315,354.698 L265.564,354.95 L267.8,355.236 L270.018,355.551 L272.216,355.892 L274.391,356.256 L275.46,356.443 L275.412,356.434 L276.259,356.597 L277.81,356.94 L279.252,357.32 L280.616,357.738 L281.906,358.192 L283.123,358.679 L284.271,359.197 L285.355,359.743 L286.375,360.314 L287.336,360.908 L288.242,361.523 L289.097,362.158 L289.903,362.809 L290.666,363.476 L291.39,364.159 L292.078,364.856 L292.735,365.569 L293.365,366.296 L293.973,367.04 L294.56,367.799 L295.446,369.014 L296.576,370.679 L297.666,372.388 L298.775,374.188 L299.927,376.08 L301.143,378.051 L302.449,380.086 L303.866,382.158 L305.041,383.751 L305.884,384.821 L306.735,385.837 L307.624,386.833 L308.552,387.801 L309.521,388.738 L310.53,389.637 L311.582,390.497 L312.677,391.312 L313.816,392.08 L314.999,392.798 L316.23,393.464 L317.509,394.077 L318.837,394.634 L320.217,395.134 L321.648,395.577 L323.138,395.962 L324.685,396.288 L326.294,396.554 L327.965,396.759 L329.704,396.902 L331.513,396.982 L333.394,396.997 L335.349,396.948 L336.88,396.867 L337.929,396.791 L338.986,396.699 L340.064,396.589 L341.164,396.462 L342.285,396.318 L343.43,396.156 L344.595,395.975 L345.196,395.877 L345.196,395.877 C345.21,395.875 345.224,395.872 345.238,395.87 L345.238,395.87 L346.304,395.682 L348.496,395.234 L350.67,394.708 L352.798,394.113 L354.881,393.451 L356.923,392.726 L358.922,391.942 L360.882,391.1 L362.805,390.206 L364.691,389.262 L366.541,388.274 L368.359,387.242 L370.144,386.172 L371.899,385.067 L373.625,383.931 L375.325,382.767 L376.999,381.58 L378.649,380.372 L381.074,378.538 L384.249,376.05 L387.376,373.534 L390.456,371.025 L393.504,368.55 L396.538,366.132 L399.57,363.794 L401.843,362.114 L403.358,361.036 L404.896,359.98 L406.447,358.956 L408.011,357.969 L409.592,357.019 L411.192,356.111 L412.812,355.245 L414.456,354.425 L416.126,353.652 L417.822,352.929 L419.552,352.258 L421.313,351.642 L423.111,351.083 L424.947,350.584 L426.823,350.149 L428.743,349.778 L430.708,349.476 L432.721,349.245 L434.784,349.089 L436.901,349.009 L439.072,349.01 L441.301,349.095 L442.997,349.214 L444.142,349.321 L445.318,349.451 L446.51,349.604 L447.718,349.781 L448.941,349.982 L450.183,350.207 L451.441,350.458 L452.715,350.733 L454.008,351.034 L455.318,351.36 L456.647,351.714 L457.994,352.094 L459.359,352.501 L460.744,352.936 L462.147,353.4 L463.57,353.891 L465.011,354.412 L465.727,354.678 L465.727,354.678 C469.121,355.943 472.384,351.467 473.016,344.68 C473.649,337.893 471.41,331.366 468.017,330.102 L467.231,329.809 L465.697,329.256 L464.182,328.733 L462.684,328.239 L461.204,327.775 L459.741,327.339 L458.295,326.932 L456.866,326.553 L455.453,326.201 L454.058,325.877 L452.676,325.58 L451.312,325.31 L449.964,325.066 L448.63,324.848 L447.313,324.656 L446.01,324.489 L444.722,324.348 L443.434,324.23 L441.535,324.099 L439.071,324.01 L436.661,324.014 L434.306,324.107 L432.001,324.287 L429.745,324.55 L427.537,324.895 L425.376,325.317 L423.259,325.813 L421.187,326.381 L419.157,327.017 L417.166,327.717 L415.216,328.479 L413.301,329.298 L411.424,330.171 L409.582,331.094 L407.772,332.064 L405.995,333.077 L404.248,334.129 L402.527,335.217 L400.836,336.335 L399.167,337.483 L397.509,338.665 L395.074,340.467 L391.908,342.909 L388.804,345.385 L385.742,347.871 L382.71,350.341 L379.69,352.772 L376.653,355.155 L374.356,356.893 L372.821,358.017 L371.276,359.115 L369.718,360.183 L368.145,361.221 L366.554,362.225 L364.943,363.193 L363.311,364.122 L361.653,365.012 L359.969,365.858 L358.256,366.658 L356.512,367.411 L354.731,368.113 L352.916,368.762 L351.061,369.355 L349.165,369.89 L347.225,370.364 L345.209,370.778 L344.135,370.967 L344.177,370.96 L343.633,371.05 L342.545,371.218 L341.483,371.369 L340.445,371.504 L339.432,371.621 L338.442,371.722 L337.476,371.807 L336.545,371.876 L335.189,371.95 L333.441,371.998 L331.783,371.987 L330.211,371.922 L328.722,371.805 L327.313,371.637 L325.982,371.423 L324.727,371.165 L323.544,370.866 L322.429,370.529 L321.381,370.157 L320.396,369.753 L319.471,369.319 L318.601,368.858 L317.782,368.372 L317.01,367.863 L316.281,367.331 L315.591,366.778 L314.934,366.203 L314.306,365.607 L313.703,364.988 L313.12,364.345 L312.554,363.677 L312.028,363.021 L311.227,361.951 L310.128,360.359 L309.013,358.628 L307.86,356.76 L306.649,354.772 L305.359,352.683 L303.969,350.52 L302.493,348.365 L301.317,346.766 L300.468,345.68 L299.584,344.61 L298.66,343.555 L297.697,342.524 L296.692,341.519 L295.645,340.544 L294.554,339.603 L293.417,338.698 L292.235,337.833 L291.004,337.009 L289.723,336.228 L288.39,335.492 L287.005,334.802 L285.563,334.16 L284.061,333.567 L282.5,333.024 L280.876,332.532 L279.185,332.092 L277.454,331.711 L276.602,331.548 L276.602,331.548 C276.586,331.545 276.57,331.542 276.554,331.539 L276.554,331.539 L275.434,331.343 L273.185,330.967 L270.905,330.614 L268.598,330.287 L266.267,329.99 L263.913,329.726 L261.541,329.5 L259.153,329.316 L256.752,329.178 L254.342,329.089 L251.926,329.054 L249.505,329.076 L247.083,329.161 L244.663,329.311 L242.247,329.532 L239.866,329.824 L238.718,329.993 L238.718,329.993 C238.704,329.995 238.69,329.997 238.676,329.999 L238.676,329.999 L237.859,330.131 L236.291,330.412 L234.761,330.721 L233.27,331.057 L231.813,331.42 L230.393,331.809 L229.007,332.222 L227.654,332.657 L226.334,333.115 L225.045,333.593 L223.787,334.091 L222.558,334.607 L221.357,335.14 L220.17,335.696 L218.448,336.553 L216.262,337.726 L214.174,338.933 L212.175,340.166 L210.257,341.411 L208.416,342.656 L206.64,343.891 L204.925,345.104 L203.254,346.29 L202.418,346.881 C202.418,346.881 202.418,346.881 202.418,346.881 C199.163,349.181 197.457,356.322 198.607,362.831 C199.757,369.34 203.328,372.752 206.582,370.452 L206.582,370.452" fill="#000000"/>
    <path d="M153.5,48.5 L351.5,48.5 C356.471,48.5 360.5,53.873 360.5,60.5 L360.5,468.5 C360.5,475.127 356.471,480.5 351.5,480.5 L153.5,480.5 C148.529,480.5 144.5,475.127 144.5,468.5 L144.5,60.5 C144.5,53.873 148.529,48.5 153.5,48.5" fill-opacity="0" stroke="#000000" stroke-width="25" stroke-linecap="round" stroke-linejoin="round"/>
    <path d="M192.5,108.5 L216.5,108.5 C223.127,108.5 228.5,113.873 228.5,120.5 L228.5,384.5 C228.5,391.127 223.127,396.5 216.5,396.5 L192.5,396.5 C185.873,396.5 180.5,391.127 180.5,384.5 L180.5,120.5 C180.5,113.873 185.873,108.5 192.5,108.5 z" fill-opacity="0" stroke="#000000" stroke-width="25" stroke-linecap="round" stroke-linejoin="round"/>
    <path d="M206.582,322.452 L207.413,321.865 L209.105,320.665 L210.805,319.462 L212.518,318.271 L214.257,317.097 L216.029,315.948 L217.849,314.829 L219.729,313.745 L221.678,312.704 L223.177,311.962 L224.199,311.485 L225.26,311.016 L226.348,310.561 L227.463,310.121 L228.608,309.698 L229.782,309.292 L230.988,308.906 L232.227,308.538 L233.502,308.191 L234.811,307.867 L236.158,307.564 L237.543,307.286 L238.968,307.033 L239.677,306.919 L239.636,306.925 L240.78,306.757 L243.007,306.486 L245.228,306.286 L247.467,306.149 L249.718,306.073 L251.979,306.054 L254.248,306.088 L256.519,306.173 L258.789,306.306 L261.055,306.482 L263.315,306.698 L265.564,306.95 L267.8,307.236 L270.018,307.551 L272.216,307.892 L274.391,308.256 L275.46,308.443 L275.412,308.434 L276.259,308.597 L277.81,308.94 L279.252,309.32 L280.616,309.738 L281.906,310.192 L283.123,310.679 L284.271,311.197 L285.355,311.743 L286.375,312.314 L287.336,312.908 L288.242,313.523 L289.097,314.158 L289.903,314.809 L290.666,315.476 L291.39,316.159 L292.078,316.856 L292.735,317.569 L293.365,318.296 L293.973,319.04 L294.56,319.799 L295.446,321.014 L296.576,322.679 L297.666,324.388 L298.775,326.188 L299.927,328.08 L301.143,330.051 L302.449,332.086 L303.866,334.158 L305.041,335.751 L305.884,336.821 L306.735,337.837 L307.624,338.833 L308.552,339.801 L309.521,340.738 L310.53,341.637 L311.582,342.497 L312.677,343.312 L313.816,344.08 L314.999,344.798 L316.23,345.464 L317.509,346.077 L318.837,346.634 L320.217,347.134 L321.648,347.577 L323.138,347.962 L324.685,348.288 L326.294,348.554 L327.965,348.759 L329.704,348.902 L331.513,348.982 L333.394,348.997 L335.349,348.948 L336.88,348.867 L337.929,348.791 L338.986,348.699 L340.064,348.589 L341.164,348.462 L342.285,348.318 L343.43,348.156 L344.595,347.975 L345.196,347.877 L345.196,347.877 C345.21,347.875 345.224,347.872 345.238,347.87 L345.238,347.87 L346.304,347.682 L348.496,347.234 L350.67,346.708 L352.798,346.113 L354.881,345.451 L356.923,344.726 L358.922,343.942 L360.882,343.1 L362.805,342.206 L364.691,341.262 L366.541,340.274 L368.359,339.242 L370.144,338.172 L371.899,337.067 L373.625,335.931 L375.325,334.767 L376.999,333.58 L378.649,332.372 L381.074,330.538 L384.249,328.05 L387.376,325.534 L390.456,323.025 L393.504,320.55 L396.538,318.132 L399.57,315.794 L401.843,314.114 L403.358,313.036 L404.896,311.98 L406.447,310.956 L408.011,309.969 L409.592,309.019 L411.192,308.111 L412.812,307.245 L414.456,306.425 L416.126,305.652 L417.822,304.929 L419.552,304.258 L421.313,303.642 L423.111,303.083 L424.947,302.584 L426.823,302.149 L428.743,301.778 L430.708,301.476 L432.721,301.245 L434.784,301.089 L436.901,301.009 L439.072,301.01 L441.301,301.095 L442.997,301.214 L444.142,301.321 L445.318,301.451 L446.51,301.604 L447.718,301.781 L448.941,301.982 L450.183,302.207 L451.441,302.458 L452.715,302.733 L454.008,303.034 L455.318,303.36 L456.647,303.714 L457.994,304.094 L459.359,304.501 L460.744,304.936 L462.147,305.4 L463.57,305.891 L465.011,306.412 L465.727,306.678 L465.727,306.678 C469.121,307.943 472.384,303.467 473.016,296.68 C473.649,289.893 471.41,283.366 468.017,282.102 L467.231,281.809 L465.697,281.256 L464.182,280.733 L462.684,280.239 L461.204,279.775 L459.741,279.339 L458.295,278.932 L456.866,278.553 L455.453,278.201 L454.058,277.877 L452.676,277.58 L451.312,277.31 L449.964,277.066 L448.63,276.848 L447.313,276.656 L446.01,276.489 L444.722,276.348 L443.434,276.23 L441.535,276.099 L439.071,276.01 L436.661,276.014 L434.306,276.107 L432.001,276.287 L429.745,276.55 L427.537,276.895 L425.376,277.317 L423.259,277.813 L421.187,278.381 L419.157,279.017 L417.166,279.717 L415.216,280.479 L413.301,281.298 L411.424,282.171 L409.582,283.094 L407.772,284.064 L405.995,285.077 L404.248,286.129 L402.527,287.217 L400.836,288.335 L399.167,289.483 L397.509,290.665 L395.074,292.467 L391.908,294.909 L388.804,297.385 L385.742,299.871 L382.71,302.341 L379.69,304.772 L376.653,307.155 L374.356,308.893 L372.821,310.017 L371.276,311.115 L369.718,312.183 L368.145,313.221 L366.554,314.225 L364.943,315.193 L363.311,316.122 L361.653,317.012 L359.969,317.858 L358.256,318.658 L356.512,319.411 L354.731,320.113 L352.916,320.762 L351.061,321.355 L349.165,321.89 L347.225,322.364 L345.209,322.778 L344.135,322.967 L344.177,322.96 L343.633,323.05 L342.545,323.218 L341.483,323.369 L340.445,323.504 L339.432,323.621 L338.442,323.722 L337.476,323.807 L336.545,323.876 L335.189,323.95 L333.441,323.998 L331.783,323.987 L330.211,323.922 L328.722,323.805 L327.313,323.637 L325.982,323.423 L324.727,323.165 L323.544,322.866 L322.429,322.529 L321.381,322.157 L320.396,321.753 L319.471,321.319 L318.601,320.858 L317.782,320.372 L317.01,319.863 L316.281,319.331 L315.591,318.778 L314.934,318.203 L314.306,317.607 L313.703,316.988 L313.12,316.345 L312.554,315.677 L312.028,315.021 L311.227,313.951 L310.128,312.359 L309.013,310.628 L307.86,308.76 L306.649,306.772 L305.359,304.683 L303.969,302.52 L302.493,300.365 L301.317,298.766 L300.468,297.68 L299.584,296.61 L298.66,295.555 L297.697,294.524 L296.692,293.519 L295.645,292.544 L294.554,291.603 L293.417,290.698 L292.235,289.833 L291.004,289.009 L289.723,288.228 L288.39,287.492 L287.005,286.802 L285.563,286.16 L284.061,285.567 L282.5,285.024 L280.876,284.532 L279.185,284.092 L277.454,283.711 L276.602,283.548 L276.602,283.548 C276.586,283.545 276.57,283.542 276.554,283.539 L276.554,283.539 L275.434,283.343 L273.185,282.967 L270.905,282.614 L268.598,282.287 L266.267,281.99 L263.913,281.726 L261.541,281.5 L259.153,281.316 L256.752,281.178 L254.342,281.089 L251.926,281.054 L249.505,281.076 L247.083,281.161 L244.663,281.311 L242.247,281.532 L239.866,281.824 L238.718,281.993 L238.718,281.993 C238.704,281.995 238.69,281.997 238.676,281.999 L238.676,281.999 L237.859,282.131 L236.291,282.412 L234.761,282.721 L233.27,283.057 L231.813,283.42 L230.393,283.809 L229.007,284.222 L227.654,284.657 L226.334,285.115 L225.045,285.593 L223.787,286.091 L222.558,286.607 L221.357,287.14 L220.17,287.696 L218.448,288.553 L216.262,289.726 L214.174,290.933 L212.175,292.166 L210.257,293.411 L208.416,294.656 L206.64,295.891 L204.925,297.104 L203.254,298.29 L202.418,298.881 C202.418,298.881 202.418,298.881 202.418,298.881 C199.163,301.181 197.457,308.322 198.607,314.831 C199.757,321.34 203.328,324.752 206.582,322.452 L206.582,322.452" fill="#000000"/>
    <path d="M206.582,274.452 L207.413,273.865 L209.105,272.665 L210.805,271.462 L212.518,270.271 L214.257,269.097 L216.029,267.948 L217.849,266.829 L219.729,265.745 L221.678,264.704 L223.177,263.962 L224.199,263.485 L225.26,263.016 L226.348,262.561 L227.463,262.121 L228.608,261.698 L229.782,261.292 L230.988,260.906 L232.227,260.538 L233.502,260.191 L234.811,259.867 L236.158,259.564 L237.543,259.286 L238.968,259.033 L239.677,258.919 L239.636,258.925 L240.78,258.757 L243.007,258.486 L245.228,258.286 L247.467,258.149 L249.718,258.073 L251.979,258.054 L254.248,258.088 L256.519,258.173 L258.789,258.306 L261.055,258.482 L263.315,258.698 L265.564,258.95 L267.8,259.236 L270.018,259.551 L272.216,259.892 L274.391,260.256 L275.46,260.443 L275.412,260.434 L276.259,260.597 L277.81,260.94 L279.252,261.32 L280.616,261.738 L281.906,262.192 L283.123,262.679 L284.271,263.197 L285.355,263.743 L286.375,264.314 L287.336,264.908 L288.242,265.523 L289.097,266.158 L289.903,266.809 L290.666,267.476 L291.39,268.159 L292.078,268.856 L292.735,269.569 L293.365,270.296 L293.973,271.04 L294.56,271.799 L295.446,273.014 L296.576,274.679 L297.666,276.388 L298.775,278.188 L299.927,280.08 L301.143,282.051 L302.449,284.086 L303.866,286.158 L305.041,287.751 L305.884,288.821 L306.735,289.837 L307.624,290.833 L308.552,291.801 L309.521,292.738 L310.53,293.637 L311.582,294.497 L312.677,295.312 L313.816,296.08 L314.999,296.798 L316.23,297.464 L317.509,298.077 L318.837,298.634 L320.217,299.134 L321.648,299.577 L323.138,299.962 L324.685,300.288 L326.294,300.554 L327.965,300.759 L329.704,300.902 L331.513,300.982 L333.394,300.997 L335.349,300.948 L336.88,300.867 L337.929,300.791 L338.986,300.699 L340.064,300.589 L341.164,300.462 L342.285,300.318 L343.43,300.156 L344.595,299.975 L345.196,299.877 L345.196,299.877 C345.21,299.875 345.224,299.872 345.238,299.87 L345.238,299.87 L346.304,299.682 L348.496,299.234 L350.67,298.708 L352.798,298.113 L354.881,297.451 L356.923,296.726 L358.922,295.942 L360.882,295.1 L362.805,294.206 L364.691,293.262 L366.541,292.274 L368.359,291.242 L370.144,290.172 L371.899,289.067 L373.625,287.931 L375.325,286.767 L376.999,285.58 L378.649,284.372 L381.074,282.538 L384.249,280.05 L387.376,277.534 L390.456,275.025 L393.504,272.55 L396.538,270.132 L399.57,267.794 L401.843,266.114 L403.358,265.036 L404.896,263.98 L406.447,262.956 L408.011,261.969 L409.592,261.019 L411.192,260.111 L412.812,259.245 L414.456,258.425 L416.126,257.652 L417.822,256.929 L419.552,256.258 L421.313,255.642 L423.111,255.083 L424.947,254.584 L426.823,254.149 L428.743,253.778 L430.708,253.476 L432.721,253.245 L434.784,253.089 L436.901,253.009 L439.072,253.01 L441.301,253.095 L442.997,253.214 L444.142,253.321 L445.318,253.451 L446.51,253.604 L447.718,253.781 L448.941,253.982 L450.183,254.207 L451.441,254.458 L452.715,254.733 L454.008,255.034 L455.318,255.36 L456.647,255.714 L457.994,256.094 L459.359,256.501 L460.744,256.936 L462.147,257.4 L463.57,257.891 L465.011,258.412 L465.727,258.678 L465.727,258.678 C469.121,259.943 472.384,255.467 473.016,248.68 C473.649,241.893 471.41,235.366 468.017,234.102 L467.231,233.809 L465.697,233.256 L464.182,232.733 L462.684,232.239 L461.204,231.775 L459.741,231.339 L458.295,230.932 L456.866,230.553 L455.453,230.201 L454.058,229.877 L452.676,229.58 L451.312,229.31 L449.964,229.066 L448.63,228.848 L447.313,228.656 L446.01,228.489 L444.722,228.348 L443.434,228.23 L441.535,228.099 L439.071,228.01 L436.661,228.014 L434.306,228.107 L432.001,228.287 L429.745,228.55 L427.537,228.895 L425.376,229.317 L423.259,229.813 L421.187,230.381 L419.157,231.017 L417.166,231.717 L415.216,232.479 L413.301,233.298 L411.424,234.171 L409.582,235.094 L407.772,236.064 L405.995,237.077 L404.248,238.129 L402.527,239.217 L400.836,240.335 L399.167,241.483 L397.509,242.665 L395.074,244.467 L391.908,246.909 L388.804,249.385 L385.742,251.871 L382.71,254.341 L379.69,256.772 L376.653,259.155 L374.356,260.893 L372.821,262.017 L371.276,263.115 L369.718,264.183 L368.145,265.221 L366.554,266.225 L364.943,267.193 L363.311,268.122 L361.653,269.012 L359.969,269.858 L358.256,270.658 L356.512,271.411 L354.731,272.113 L352.916,272.762 L351.061,273.355 L349.165,273.89 L347.225,274.364 L345.209,274.778 L344.135,274.967 L344.177,274.96 L343.633,275.05 L342.545,275.218 L341.483,275.369 L340.445,275.504 L339.432,275.621 L338.442,275.722 L337.476,275.807 L336.545,275.876 L335.189,275.95 L333.441,275.998 L331.783,275.987 L330.211,275.922 L328.722,275.805 L327.313,275.637 L325.982,275.423 L324.727,275.165 L323.544,274.866 L322.429,274.529 L321.381,274.157 L320.396,273.753 L319.471,273.319 L318.601,272.858 L317.782,272.372 L317.01,271.863 L316.281,271.331 L315.591,270.778 L314.934,270.203 L314.306,269.607 L313.703,268.988 L313.12,268.345 L312.554,267.677 L312.028,267.021 L311.227,265.951 L310.128,264.359 L309.013,262.628 L307.86,260.76 L306.649,258.772 L305.359,256.683 L303.969,254.52 L302.493,252.365 L301.317,250.766 L300.468,249.68 L299.584,248.61 L298.66,247.555 L297.697,246.524 L296.692,245.519 L295.645,244.544 L294.554,243.603 L293.417,242.698 L292.235,241.833 L291.004,241.009 L289.723,240.228 L288.39,239.492 L287.005,238.802 L285.563,238.16 L284.061,237.567 L282.5,237.024 L280.876,236.532 L279.185,236.092 L277.454,235.711 L276.602,235.548 L276.602,235.548 C276.586,235.545 276.57,235.542 276.554,235.539 L276.554,235.539 L275.434,235.343 L273.185,234.967 L270.905,234.614 L268.598,234.287 L266.267,233.99 L263.913,233.726 L261.541,233.5 L259.153,233.316 L256.752,233.178 L254.342,233.089 L251.926,233.054 L249.505,233.076 L247.083,233.161 L244.663,233.311 L242.247,233.532 L239.866,233.824 L238.718,233.993 L238.718,233.993 C238.704,233.995 238.69,233.997 238.676,233.999 L238.676,233.999 L237.859,234.131 L236.291,234.412 L234.761,234.721 L233.27,235.057 L231.813,235.42 L230.393,235.809 L229.007,236.222 L227.654,236.657 L226.334,237.115 L225.045,237.593 L223.787,238.091 L222.558,238.607 L221.357,239.14 L220.17,239.696 L218.448,240.553 L216.262,241.726 L214.174,242.933 L212.175,244.166 L210.257,245.411 L208.416,246.656 L206.64,247.891 L204.925,249.104 L203.254,250.29 L202.418,250.881 C202.418,250.881 202.418,250.881 202.418,250.881 C199.163,253.181 197.457,260.322 198.607,266.831 C199.757,273.34 203.328,276.752 206.582,274.452 L206.582,274.452" fill="#000000"/>
    <path d="M206.582,226.452 L207.413,225.865 L209.105,224.665 L210.805,223.462 L212.518,222.271 L214.257,221.097 L216.029,219.948 L217.849,218.829 L219.729,217.745 L221.678,216.704 L223.177,215.962 L224.199,215.485 L225.26,215.016 L226.348,214.561 L227.463,214.121 L228.608,213.698 L229.782,213.292 L230.988,212.906 L232.227,212.538 L233.502,212.191 L234.811,211.867 L236.158,211.564 L237.543,211.286 L238.968,211.033 L239.677,210.919 L239.636,210.925 L240.78,210.757 L243.007,210.486 L245.228,210.286 L247.467,210.149 L249.718,210.073 L251.979,210.054 L254.248,210.088 L256.519,210.173 L258.789,210.306 L261.055,210.482 L263.315,210.698 L265.564,210.95 L267.8,211.236 L270.018,211.551 L272.216,211.892 L274.391,212.256 L275.46,212.443 L275.412,212.434 L276.259,212.597 L277.81,212.94 L279.252,213.32 L280.616,213.738 L281.906,214.192 L283.123,214.679 L284.271,215.197 L285.355,215.743 L286.375,216.314 L287.336,216.908 L288.242,217.523 L289.097,218.158 L289.903,218.809 L290.666,219.476 L291.39,220.159 L292.078,220.856 L292.735,221.569 L293.365,222.296 L293.973,223.04 L294.56,223.799 L295.446,225.014 L296.576,226.679 L297.666,228.388 L298.775,230.188 L299.927,232.08 L301.143,234.051 L302.449,236.086 L303.866,238.158 L305.041,239.751 L305.884,240.821 L306.735,241.837 L307.624,242.833 L308.552,243.801 L309.521,244.738 L310.53,245.637 L311.582,246.497 L312.677,247.312 L313.816,248.08 L314.999,248.798 L316.23,249.464 L317.509,250.077 L318.837,250.634 L320.217,251.134 L321.648,251.577 L323.138,251.962 L324.685,252.288 L326.294,252.554 L327.965,252.759 L329.704,252.902 L331.513,252.982 L333.394,252.997 L335.349,252.948 L336.88,252.867 L337.929,252.791 L338.986,252.699 L340.064,252.589 L341.164,252.462 L342.285,252.318 L343.43,252.156 L344.595,251.975 L345.196,251.877 L345.196,251.877 C345.21,251.875 345.224,251.872 345.238,251.87 L345.238,251.87 L346.304,251.682 L348.496,251.234 L350.67,250.708 L352.798,250.113 L354.881,249.451 L356.923,248.726 L358.922,247.942 L360.882,247.1 L362.805,246.206 L364.691,245.262 L366.541,244.274 L368.359,243.242 L370.144,242.172 L371.899,241.067 L373.625,239.931 L375.325,238.767 L376.999,237.58 L378.649,236.372 L381.074,234.538 L384.249,232.05 L387.376,229.534 L390.456,227.025 L393.504,224.55 L396.538,222.132 L399.57,219.794 L401.843,218.114 L403.358,217.036 L404.896,215.98 L406.447,214.956 L408.011,213.969 L409.592,213.019 L411.192,212.111 L412.812,211.245 L414.456,210.425 L416.126,209.652 L417.822,208.929 L419.552,208.258 L421.313,207.642 L423.111,207.083 L424.947,206.584 L426.823,206.149 L428.743,205.778 L430.708,205.476 L432.721,205.245 L434.784,205.089 L436.901,205.009 L439.072,205.01 L441.301,205.095 L442.997,205.214 L444.142,205.321 L445.318,205.451 L446.51,205.604 L447.718,205.781 L448.941,205.982 L450.183,206.207 L451.441,206.458 L452.715,206.733 L454.008,207.034 L455.318,207.36 L456.647,207.714 L457.994,208.094 L459.359,208.501 L460.744,208.936 L462.147,209.4 L463.57,209.891 L465.011,210.412 L465.727,210.678 L465.727,210.678 C469.121,211.943 472.384,207.467 473.016,200.68 C473.649,193.893 471.41,187.366 468.017,186.102 L467.231,185.809 L465.697,185.256 L464.182,184.733 L462.684,184.239 L461.204,183.775 L459.741,183.339 L458.295,182.932 L456.866,182.553 L455.453,182.201 L454.058,181.877 L452.676,181.58 L451.312,181.31 L449.964,181.066 L448.63,180.848 L447.313,180.656 L446.01,180.489 L444.722,180.348 L443.434,180.23 L441.535,180.099 L439.071,180.01 L436.661,180.014 L434.306,180.107 L432.001,180.287 L429.745,180.55 L427.537,180.895 L425.376,181.317 L423.259,181.813 L421.187,182.381 L419.157,183.017 L417.166,183.717 L415.216,184.479 L413.301,185.298 L411.424,186.171 L409.582,187.094 L407.772,188.064 L405.995,189.077 L404.248,190.129 L402.527,191.217 L400.836,192.335 L399.167,193.483 L397.509,194.665 L395.074,196.467 L391.908,198.909 L388.804,201.385 L385.742,203.871 L382.71,206.341 L379.69,208.773 L376.653,211.155 L374.356,212.893 L372.821,214.017 L371.276,215.115 L369.718,216.183 L368.145,217.221 L366.554,218.225 L364.943,219.193 L363.311,220.122 L361.653,221.012 L359.969,221.858 L358.256,222.658 L356.512,223.411 L354.731,224.113 L352.916,224.762 L351.061,225.355 L349.165,225.89 L347.225,226.364 L345.209,226.778 L344.135,226.967 L344.177,226.96 L343.633,227.05 L342.545,227.218 L341.483,227.369 L340.445,227.504 L339.432,227.621 L338.442,227.722 L337.476,227.807 L336.545,227.876 L335.189,227.95 L333.441,227.998 L331.783,227.987 L330.211,227.922 L328.722,227.805 L327.313,227.637 L325.982,227.423 L324.727,227.165 L323.544,226.866 L322.429,226.529 L321.381,226.157 L320.396,225.753 L319.471,225.319 L318.601,224.858 L317.782,224.372 L317.01,223.863 L316.281,223.331 L315.591,222.778 L314.934,222.203 L314.306,221.607 L313.703,220.988 L313.12,220.345 L312.554,219.677 L312.028,219.021 L311.227,217.951 L310.128,216.359 L309.013,214.628 L307.86,212.76 L306.649,210.772 L305.359,208.683 L303.969,206.52 L302.493,204.365 L301.317,202.766 L300.468,201.68 L299.584,200.61 L298.66,199.555 L297.697,198.524 L296.692,197.519 L295.645,196.544 L294.554,195.603 L293.417,194.698 L292.235,193.833 L291.004,193.009 L289.723,192.228 L288.39,191.492 L287.005,190.802 L285.563,190.16 L284.061,189.567 L282.5,189.024 L280.876,188.532 L279.185,188.092 L277.454,187.711 L276.602,187.548 L276.602,187.548 C276.586,187.545 276.57,187.542 276.554,187.539 L276.554,187.539 L275.434,187.343 L273.185,186.967 L270.905,186.614 L268.598,186.287 L266.267,185.99 L263.913,185.726 L261.541,185.5 L259.153,185.316 L256.752,185.178 L254.342,185.089 L251.926,185.054 L249.505,185.076 L247.083,185.161 L244.663,185.311 L242.247,185.532 L239.866,185.824 L238.718,185.993 L238.718,185.993 C238.704,185.995 238.69,185.997 238.676,185.999 L238.676,185.999 L237.859,186.131 L236.291,186.412 L234.761,186.721 L233.27,187.057 L231.813,187.42 L230.393,187.809 L229.007,188.222 L227.654,188.657 L226.334,189.115 L225.045,189.593 L223.787,190.091 L222.558,190.607 L221.357,191.14 L220.17,191.696 L218.448,192.553 L216.262,193.726 L214.174,194.933 L212.175,196.166 L210.257,197.411 L208.416,198.656 L206.64,199.891 L204.925,201.104 L203.254,202.29 L202.418,202.881 C202.418,202.881 202.418,202.881 202.418,202.881 C199.163,205.181 197.457,212.322 198.607,218.831 C199.757,225.34 203.328,228.752 206.582,226.452 L206.582,226.452" fill="#000000"/>
    <path d="M306.5,168.5 C289.931,168.5 276.5,155.069 276.5,138.5 C276.5,121.931 289.931,108.5 306.5,108.5 C323.069,108.5 336.5,121.931 336.5,138.5 C336.5,155.069 323.069,168.5 306.5,168.5 z" fill-opacity="0" stroke="#000000" stroke-width="25" stroke-linecap="round" stroke-linejoin="round"/>
  </g>
</svg>
