<?xml version="1.0" encoding="UTF-8"?>
<!DOCTYPE svg PUBLIC "-//W3C//DTD SVG 1.1//EN" "http://www.w3.org/Graphics/SVG/1.1/DTD/svg11.dtd">
<svg version="1.1" xmlns="http://www.w3.org/2000/svg" xmlns:xlink="http://www.w3.org/1999/xlink" x="0" y="0" width="512" height="512" viewBox="0, 0, 512, 512">
  <g id="Layer_1">
    <path d="M205.749,365.738 L206.582,365.15 L208.269,363.952 L209.972,362.748 L211.698,361.548 L213.456,360.36 L215.258,359.191 L217.114,358.049 L219.035,356.941 L221.032,355.874 L222.576,355.109 L223.63,354.617 L224.72,354.134 L225.836,353.667 L226.981,353.215 L228.153,352.781 L229.357,352.365 L230.593,351.969 L231.861,351.592 L233.164,351.237 L234.503,350.905 L235.878,350.596 L237.293,350.311 L238.746,350.052 L239.478,349.935 L239.452,349.939 L240.597,349.771 L242.855,349.495 L245.115,349.291 L247.39,349.151 L249.675,349.073 L251.968,349.054 L254.267,349.088 L256.565,349.174 L258.862,349.308 L261.152,349.485 L263.435,349.703 L265.705,349.958 L267.959,350.246 L270.196,350.564 L272.41,350.907 L274.599,351.273 L275.679,351.462 L275.65,351.457 L276.498,351.62 L278.085,351.971 L279.577,352.362 L280.993,352.795 L282.337,353.267 L283.611,353.776 L284.819,354.319 L285.962,354.893 L287.045,355.497 L288.07,356.129 L289.041,356.785 L289.961,357.466 L290.834,358.168 L291.663,358.89 L292.451,359.632 L293.202,360.39 L293.92,361.166 L294.609,361.959 L295.272,362.768 L295.912,363.592 L296.856,364.884 L298.054,366.647 L299.205,368.448 L300.35,370.306 L301.513,372.216 L302.718,374.167 L303.986,376.142 L305.338,378.117 L306.438,379.605 L307.218,380.593 L308.012,381.539 L308.84,382.464 L309.704,383.362 L310.603,384.23 L311.543,385.065 L312.522,385.864 L313.544,386.622 L314.609,387.339 L315.72,388.01 L316.879,388.635 L318.086,389.212 L319.346,389.738 L320.659,390.213 L322.028,390.635 L323.455,391.003 L324.945,391.315 L326.498,391.571 L328.117,391.768 L329.806,391.906 L331.567,391.983 L333.403,391.997 L335.317,391.948 L336.813,391.868 L337.839,391.794 L338.877,391.703 L339.938,391.596 L341.02,391.471 L342.126,391.328 L343.253,391.168 L344.403,390.99 L344.992,390.894 L344.992,390.894 C345.001,390.892 345.009,390.891 345.017,390.889 L345.017,390.889 L346.085,390.701 L348.242,390.26 L350.369,389.745 L352.45,389.162 L354.488,388.514 L356.484,387.804 L358.44,387.035 L360.357,386.212 L362.238,385.337 L364.083,384.413 L365.895,383.443 L367.676,382.432 L369.427,381.382 L371.148,380.298 L372.844,379.181 L374.515,378.036 L376.164,376.867 L377.791,375.676 L380.189,373.862 L383.337,371.395 L386.443,368.895 L389.513,366.395 L392.564,363.917 L395.612,361.487 L398.671,359.129 L400.976,357.425 L402.519,356.326 L404.084,355.25 L405.663,354.208 L407.258,353.201 L408.872,352.231 L410.507,351.302 L412.166,350.415 L413.849,349.574 L415.56,348.781 L417.302,348.039 L419.075,347.35 L420.883,346.717 L422.726,346.143 L424.609,345.63 L426.534,345.182 L428.502,344.801 L430.515,344.491 L432.577,344.253 L434.688,344.092 L436.853,344.01 L439.072,344.01 L441.347,344.096 L443.085,344.217 L444.259,344.326 L445.457,344.459 L446.671,344.615 L447.9,344.795 L449.146,344.999 L450.409,345.228 L451.688,345.482 L452.984,345.762 L454.297,346.067 L455.628,346.399 L456.977,346.757 L458.343,347.143 L459.728,347.556 L461.131,347.997 L462.554,348.466 L463.994,348.964 L465.455,349.491 L466.186,349.763 L466.186,349.763 C468.222,350.521 470.18,347.835 470.559,343.763 C470.938,339.691 469.595,335.775 467.559,335.017 L466.788,334.73 L465.272,334.183 L463.775,333.666 L462.296,333.179 L460.835,332.72 L459.392,332.29 L457.965,331.888 L456.557,331.514 L455.164,331.168 L453.789,330.848 L452.43,330.556 L451.087,330.289 L449.759,330.049 L448.448,329.835 L447.152,329.646 L445.872,329.482 L444.605,329.342 L443.346,329.226 L441.488,329.098 L439.072,329.01 L436.71,329.013 L434.402,329.103 L432.144,329.278 L429.937,329.535 L427.778,329.871 L425.665,330.283 L423.597,330.768 L421.572,331.322 L419.587,331.942 L417.643,332.626 L415.737,333.369 L413.867,334.168 L412.031,335.022 L410.228,335.924 L408.457,336.873 L406.715,337.865 L405,338.897 L403.312,339.964 L401.647,341.065 L400.006,342.194 L398.376,343.355 L395.974,345.132 L392.834,347.554 L389.744,350.018 L386.686,352.501 L383.644,354.979 L380.602,357.428 L377.538,359.831 L375.215,361.589 L373.657,362.73 L372.086,363.845 L370.5,364.933 L368.896,365.99 L367.271,367.015 L365.627,368.003 L363.957,368.953 L362.261,369.862 L360.537,370.728 L358.782,371.547 L356.993,372.317 L355.17,373.036 L353.309,373.7 L351.409,374.307 L349.466,374.854 L347.479,375.338 L345.428,375.759 L344.356,375.948 L344.381,375.944 L343.826,376.035 L342.722,376.206 L341.643,376.359 L340.589,376.495 L339.558,376.615 L338.551,376.718 L337.566,376.804 L336.613,376.874 L335.221,376.95 L333.432,376.998 L331.729,376.986 L330.109,376.918 L328.57,376.795 L327.109,376.62 L325.723,376.396 L324.409,376.125 L323.165,375.808 L321.987,375.45 L320.872,375.052 L319.819,374.618 L318.823,374.148 L317.881,373.646 L316.989,373.114 L316.143,372.552 L315.341,371.964 L314.579,371.349 L313.852,370.71 L313.155,370.045 L312.487,369.357 L311.844,368.644 L311.22,367.906 L310.63,367.166 L309.755,365.993 L308.592,364.304 L307.439,362.512 L306.274,360.625 L305.074,358.655 L303.82,356.623 L302.491,354.553 L301.084,352.495 L299.966,350.972 L299.169,349.952 L298.34,348.947 L297.475,347.958 L296.572,346.99 L295.631,346.046 L294.648,345.13 L293.623,344.243 L292.553,343.39 L291.436,342.571 L290.27,341.788 L289.054,341.045 L287.783,340.342 L286.457,339.681 L285.074,339.064 L283.63,338.492 L282.123,337.967 L280.551,337.489 L278.909,337.062 L277.215,336.688 L276.364,336.525 L276.364,336.525 C276.354,336.523 276.345,336.522 276.335,336.52 L276.335,336.52 L275.225,336.325 L272.991,335.952 L270.728,335.602 L268.438,335.277 L266.126,334.982 L263.793,334.721 L261.444,334.497 L259.08,334.314 L256.706,334.177 L254.323,334.089 L251.937,334.054 L249.548,334.076 L247.16,334.158 L244.776,334.306 L242.4,334.523 L240.049,334.811 L238.901,334.979 L238.901,334.979 C238.893,334.98 238.884,334.982 238.876,334.983 L238.876,334.983 L238.081,335.111 L236.541,335.387 L235.041,335.689 L233.577,336.019 L232.151,336.375 L230.76,336.755 L229.403,337.159 L228.08,337.585 L226.789,338.032 L225.528,338.499 L224.299,338.985 L223.098,339.489 L221.926,340.009 L220.771,340.549 L219.093,341.383 L216.956,342.529 L214.909,343.712 L212.946,344.922 L211.058,346.148 L209.236,347.379 L207.473,348.605 L205.76,349.816 L204.085,351.005 L203.251,351.595 C201.298,352.975 200.274,357.26 200.964,361.165 C201.654,365.071 203.797,367.118 205.749,365.738 L205.749,365.738" fill="#FFFFFF"/>
    <path d="M153.5,48.5 L351.5,48.5 C356.471,48.5 360.5,53.873 360.5,60.5 L360.5,468.5 C360.5,475.127 356.471,480.5 351.5,480.5 L153.5,480.5 C148.529,480.5 144.5,475.127 144.5,468.5 L144.5,60.5 C144.5,53.873 148.529,48.5 153.5,48.5" fill-opacity="0" stroke="#FFFFFF" stroke-width="15" stroke-linecap="round" stroke-linejoin="round"/>
    <path d="M192.5,108.5 L216.5,108.5 C223.127,108.5 228.5,113.873 228.5,120.5 L228.5,384.5 C228.5,391.127 223.127,396.5 216.5,396.5 L192.5,396.5 C185.873,396.5 180.5,391.127 180.5,384.5 L180.5,120.5 C180.5,113.873 185.873,108.5 192.5,108.5 z" fill-opacity="0" stroke="#FFFFFF" stroke-width="15" stroke-linecap="round" stroke-linejoin="round"/>
    <path d="M205.749,317.738 L206.582,317.15 L208.269,315.952 L209.972,314.748 L211.698,313.548 L213.456,312.36 L215.258,311.191 L217.114,310.049 L219.035,308.941 L221.032,307.874 L222.576,307.109 L223.63,306.617 L224.72,306.134 L225.836,305.667 L226.981,305.215 L228.153,304.781 L229.357,304.365 L230.593,303.969 L231.861,303.592 L233.164,303.237 L234.503,302.905 L235.878,302.596 L237.293,302.311 L238.746,302.052 L239.478,301.935 L239.452,301.939 L240.597,301.771 L242.855,301.495 L245.115,301.291 L247.39,301.151 L249.675,301.073 L251.968,301.054 L254.267,301.088 L256.565,301.174 L258.862,301.308 L261.152,301.485 L263.435,301.703 L265.705,301.958 L267.959,302.246 L270.196,302.564 L272.41,302.907 L274.599,303.273 L275.679,303.462 L275.65,303.457 L276.498,303.62 L278.085,303.971 L279.577,304.362 L280.993,304.795 L282.337,305.267 L283.611,305.776 L284.819,306.319 L285.962,306.893 L287.045,307.497 L288.07,308.129 L289.041,308.785 L289.961,309.466 L290.834,310.168 L291.663,310.89 L292.451,311.632 L293.202,312.39 L293.92,313.166 L294.609,313.959 L295.272,314.768 L295.912,315.592 L296.856,316.884 L298.054,318.647 L299.205,320.448 L300.35,322.306 L301.513,324.216 L302.718,326.167 L303.986,328.142 L305.338,330.117 L306.438,331.605 L307.218,332.593 L308.012,333.539 L308.84,334.464 L309.704,335.362 L310.603,336.23 L311.543,337.065 L312.522,337.864 L313.544,338.622 L314.609,339.339 L315.72,340.01 L316.879,340.635 L318.086,341.212 L319.346,341.738 L320.659,342.213 L322.028,342.635 L323.455,343.003 L324.945,343.315 L326.498,343.571 L328.117,343.768 L329.806,343.906 L331.567,343.983 L333.403,343.997 L335.317,343.948 L336.813,343.868 L337.839,343.794 L338.877,343.703 L339.938,343.596 L341.02,343.471 L342.126,343.328 L343.253,343.168 L344.403,342.99 L344.992,342.894 L344.992,342.894 C345.001,342.892 345.009,342.891 345.017,342.889 L345.017,342.889 L346.085,342.701 L348.242,342.26 L350.369,341.745 L352.45,341.162 L354.488,340.514 L356.484,339.804 L358.44,339.035 L360.357,338.212 L362.238,337.337 L364.083,336.413 L365.895,335.443 L367.675,334.432 L369.427,333.382 L371.148,332.298 L372.844,331.181 L374.515,330.036 L376.164,328.867 L377.791,327.676 L380.189,325.862 L383.337,323.395 L386.443,320.895 L389.513,318.395 L392.564,315.917 L395.612,313.487 L398.671,311.129 L400.976,309.425 L402.519,308.326 L404.084,307.25 L405.663,306.208 L407.258,305.201 L408.872,304.231 L410.507,303.302 L412.166,302.415 L413.849,301.574 L415.56,300.781 L417.302,300.039 L419.075,299.35 L420.883,298.717 L422.726,298.143 L424.609,297.63 L426.534,297.182 L428.502,296.801 L430.515,296.491 L432.577,296.253 L434.688,296.092 L436.853,296.01 L439.072,296.01 L441.347,296.096 L443.085,296.217 L444.259,296.326 L445.457,296.459 L446.671,296.615 L447.9,296.795 L449.146,296.999 L450.409,297.228 L451.688,297.482 L452.984,297.762 L454.297,298.067 L455.628,298.399 L456.977,298.757 L458.343,299.143 L459.728,299.556 L461.131,299.997 L462.554,300.466 L463.994,300.964 L465.455,301.491 L466.186,301.763 L466.186,301.763 C468.222,302.521 470.18,299.835 470.559,295.763 C470.938,291.691 469.595,287.775 467.559,287.017 L466.788,286.73 L465.272,286.183 L463.775,285.666 L462.296,285.179 L460.835,284.72 L459.392,284.29 L457.965,283.888 L456.557,283.514 L455.164,283.168 L453.789,282.848 L452.43,282.556 L451.087,282.289 L449.759,282.049 L448.448,281.835 L447.152,281.646 L445.871,281.482 L444.605,281.342 L443.346,281.226 L441.488,281.098 L439.072,281.01 L436.71,281.013 L434.401,281.103 L432.144,281.278 L429.937,281.535 L427.778,281.871 L425.665,282.283 L423.597,282.768 L421.572,283.322 L419.587,283.942 L417.643,284.626 L415.737,285.369 L413.867,286.168 L412.031,287.022 L410.228,287.924 L408.457,288.873 L406.715,289.865 L405,290.897 L403.312,291.964 L401.647,293.065 L400.006,294.194 L398.376,295.355 L395.974,297.132 L392.834,299.554 L389.744,302.018 L386.686,304.501 L383.644,306.979 L380.602,309.428 L377.538,311.831 L375.215,313.589 L373.657,314.73 L372.086,315.845 L370.5,316.933 L368.896,317.99 L367.271,319.015 L365.627,320.003 L363.957,320.953 L362.261,321.862 L360.537,322.728 L358.782,323.547 L356.993,324.317 L355.17,325.036 L353.309,325.7 L351.409,326.307 L349.466,326.854 L347.479,327.338 L345.428,327.759 L344.356,327.948 L344.381,327.944 L343.826,328.035 L342.722,328.206 L341.643,328.359 L340.589,328.495 L339.558,328.615 L338.551,328.718 L337.566,328.804 L336.613,328.874 L335.221,328.95 L333.432,328.998 L331.729,328.986 L330.109,328.918 L328.57,328.795 L327.109,328.62 L325.723,328.396 L324.409,328.125 L323.165,327.808 L321.987,327.45 L320.872,327.052 L319.819,326.618 L318.823,326.148 L317.881,325.646 L316.989,325.114 L316.143,324.552 L315.341,323.964 L314.579,323.349 L313.852,322.71 L313.155,322.045 L312.487,321.357 L311.844,320.644 L311.22,319.906 L310.63,319.166 L309.755,317.993 L308.592,316.304 L307.439,314.512 L306.274,312.625 L305.074,310.655 L303.82,308.623 L302.491,306.553 L301.084,304.495 L299.966,302.972 L299.169,301.952 L298.34,300.947 L297.475,299.958 L296.572,298.99 L295.631,298.046 L294.648,297.13 L293.623,296.243 L292.553,295.39 L291.436,294.571 L290.27,293.788 L289.054,293.045 L287.783,292.342 L286.457,291.681 L285.074,291.064 L283.63,290.492 L282.123,289.967 L280.551,289.489 L278.909,289.062 L277.215,288.688 L276.364,288.525 L276.364,288.525 C276.354,288.523 276.345,288.522 276.335,288.52 L276.335,288.52 L275.225,288.325 L272.991,287.952 L270.728,287.602 L268.438,287.277 L266.126,286.982 L263.793,286.721 L261.444,286.497 L259.08,286.314 L256.706,286.177 L254.323,286.089 L251.937,286.054 L249.548,286.076 L247.16,286.158 L244.776,286.306 L242.4,286.523 L240.049,286.811 L238.901,286.979 L238.901,286.979 C238.893,286.98 238.884,286.982 238.876,286.983 L238.876,286.983 L238.081,287.111 L236.541,287.387 L235.041,287.689 L233.577,288.019 L232.151,288.375 L230.76,288.755 L229.403,289.159 L228.08,289.585 L226.789,290.032 L225.528,290.499 L224.299,290.985 L223.098,291.489 L221.926,292.009 L220.771,292.549 L219.093,293.383 L216.956,294.529 L214.909,295.712 L212.946,296.922 L211.058,298.148 L209.236,299.379 L207.473,300.605 L205.76,301.816 L204.085,303.005 L203.251,303.595 C201.298,304.975 200.274,309.26 200.964,313.165 C201.654,317.071 203.797,319.118 205.749,317.738 L205.749,317.738" fill="#FFFFFF"/>
    <path d="M205.749,269.738 L206.582,269.15 L208.269,267.952 L209.972,266.748 L211.698,265.548 L213.456,264.36 L215.258,263.191 L217.114,262.049 L219.035,260.941 L221.032,259.874 L222.576,259.109 L223.63,258.617 L224.72,258.134 L225.836,257.667 L226.981,257.215 L228.153,256.781 L229.357,256.365 L230.593,255.969 L231.861,255.592 L233.164,255.237 L234.503,254.905 L235.878,254.596 L237.293,254.311 L238.746,254.052 L239.478,253.935 L239.452,253.939 L240.597,253.77 L242.855,253.495 L245.115,253.291 L247.39,253.151 L249.675,253.073 L251.968,253.054 L254.267,253.088 L256.565,253.174 L258.862,253.308 L261.152,253.485 L263.435,253.703 L265.705,253.958 L267.959,254.246 L270.196,254.564 L272.41,254.907 L274.599,255.273 L275.679,255.462 L275.65,255.457 L276.498,255.62 L278.085,255.971 L279.577,256.362 L280.993,256.795 L282.337,257.267 L283.611,257.776 L284.819,258.319 L285.962,258.893 L287.045,259.497 L288.07,260.129 L289.041,260.785 L289.961,261.466 L290.834,262.168 L291.663,262.89 L292.451,263.632 L293.202,264.39 L293.92,265.166 L294.609,265.959 L295.272,266.768 L295.912,267.592 L296.856,268.884 L298.054,270.647 L299.205,272.448 L300.35,274.306 L301.513,276.216 L302.718,278.167 L303.986,280.142 L305.338,282.117 L306.438,283.605 L307.218,284.593 L308.012,285.539 L308.84,286.464 L309.704,287.362 L310.603,288.23 L311.543,289.065 L312.522,289.864 L313.544,290.622 L314.609,291.339 L315.72,292.01 L316.879,292.635 L318.086,293.212 L319.346,293.738 L320.659,294.213 L322.028,294.635 L323.455,295.003 L324.945,295.315 L326.498,295.571 L328.117,295.768 L329.806,295.906 L331.567,295.983 L333.403,295.997 L335.317,295.948 L336.813,295.868 L337.839,295.794 L338.877,295.703 L339.938,295.596 L341.02,295.471 L342.126,295.328 L343.253,295.168 L344.403,294.99 L344.992,294.894 L344.992,294.894 C345.001,294.892 345.009,294.891 345.017,294.889 L345.017,294.889 L346.085,294.701 L348.242,294.26 L350.369,293.745 L352.45,293.162 L354.488,292.514 L356.484,291.804 L358.44,291.035 L360.357,290.212 L362.238,289.337 L364.083,288.413 L365.895,287.443 L367.676,286.432 L369.427,285.382 L371.148,284.298 L372.844,283.181 L374.515,282.036 L376.164,280.867 L377.791,279.676 L380.189,277.862 L383.337,275.395 L386.443,272.895 L389.513,270.395 L392.564,267.917 L395.612,265.487 L398.671,263.129 L400.976,261.425 L402.519,260.326 L404.084,259.25 L405.663,258.208 L407.258,257.201 L408.872,256.231 L410.507,255.302 L412.166,254.415 L413.849,253.574 L415.56,252.781 L417.302,252.039 L419.075,251.35 L420.883,250.717 L422.726,250.143 L424.609,249.63 L426.534,249.182 L428.502,248.801 L430.515,248.491 L432.577,248.253 L434.688,248.092 L436.853,248.01 L439.072,248.01 L441.347,248.096 L443.085,248.217 L444.259,248.326 L445.457,248.459 L446.671,248.615 L447.9,248.795 L449.146,248.999 L450.409,249.228 L451.688,249.482 L452.984,249.762 L454.297,250.067 L455.628,250.399 L456.977,250.757 L458.343,251.143 L459.728,251.556 L461.131,251.997 L462.554,252.466 L463.994,252.964 L465.455,253.491 L466.186,253.763 L466.186,253.763 C468.222,254.521 470.18,251.835 470.559,247.763 C470.938,243.691 469.595,239.775 467.559,239.017 L466.788,238.73 L465.272,238.183 L463.775,237.666 L462.296,237.179 L460.835,236.72 L459.392,236.29 L457.965,235.888 L456.557,235.514 L455.164,235.168 L453.789,234.848 L452.43,234.556 L451.087,234.289 L449.759,234.049 L448.448,233.835 L447.152,233.646 L445.872,233.482 L444.605,233.342 L443.346,233.226 L441.488,233.098 L439.072,233.01 L436.71,233.013 L434.402,233.103 L432.144,233.278 L429.937,233.535 L427.778,233.871 L425.665,234.283 L423.597,234.768 L421.572,235.322 L419.587,235.942 L417.643,236.626 L415.737,237.369 L413.867,238.168 L412.031,239.022 L410.228,239.924 L408.457,240.873 L406.715,241.865 L405,242.897 L403.312,243.964 L401.647,245.065 L400.006,246.194 L398.376,247.355 L395.974,249.132 L392.834,251.554 L389.744,254.018 L386.686,256.501 L383.644,258.979 L380.602,261.428 L377.538,263.831 L375.215,265.589 L373.657,266.73 L372.086,267.845 L370.5,268.933 L368.896,269.99 L367.271,271.015 L365.627,272.003 L363.957,272.953 L362.261,273.862 L360.537,274.728 L358.782,275.547 L356.993,276.317 L355.17,277.036 L353.309,277.7 L351.409,278.307 L349.466,278.854 L347.479,279.338 L345.428,279.759 L344.356,279.948 L344.381,279.944 L343.826,280.035 L342.722,280.206 L341.643,280.359 L340.589,280.495 L339.558,280.615 L338.551,280.718 L337.566,280.804 L336.613,280.874 L335.221,280.95 L333.432,280.998 L331.729,280.986 L330.109,280.918 L328.57,280.795 L327.109,280.62 L325.723,280.396 L324.409,280.125 L323.165,279.808 L321.987,279.45 L320.872,279.052 L319.819,278.618 L318.823,278.148 L317.881,277.646 L316.989,277.114 L316.143,276.552 L315.341,275.964 L314.579,275.349 L313.852,274.71 L313.155,274.045 L312.487,273.357 L311.844,272.644 L311.22,271.906 L310.63,271.166 L309.755,269.993 L308.592,268.304 L307.439,266.512 L306.274,264.625 L305.074,262.655 L303.82,260.623 L302.491,258.553 L301.084,256.495 L299.966,254.972 L299.169,253.952 L298.34,252.947 L297.475,251.958 L296.572,250.99 L295.631,250.046 L294.648,249.13 L293.623,248.243 L292.553,247.39 L291.436,246.571 L290.27,245.788 L289.054,245.045 L287.783,244.342 L286.457,243.681 L285.074,243.064 L283.63,242.492 L282.123,241.967 L280.551,241.489 L278.909,241.062 L277.215,240.688 L276.364,240.525 L276.364,240.525 C276.354,240.523 276.345,240.522 276.335,240.52 L276.335,240.52 L275.225,240.325 L272.991,239.952 L270.728,239.602 L268.438,239.277 L266.126,238.982 L263.793,238.721 L261.444,238.497 L259.08,238.314 L256.706,238.177 L254.323,238.089 L251.937,238.054 L249.548,238.076 L247.16,238.158 L244.776,238.306 L242.4,238.523 L240.049,238.811 L238.901,238.979 L238.901,238.979 C238.893,238.98 238.884,238.982 238.876,238.983 L238.876,238.983 L238.081,239.111 L236.541,239.387 L235.041,239.689 L233.577,240.019 L232.151,240.375 L230.76,240.755 L229.403,241.159 L228.08,241.585 L226.789,242.032 L225.528,242.499 L224.299,242.985 L223.098,243.489 L221.926,244.009 L220.771,244.549 L219.093,245.383 L216.956,246.529 L214.909,247.712 L212.946,248.922 L211.058,250.148 L209.236,251.379 L207.473,252.605 L205.76,253.816 L204.085,255.005 L203.251,255.595 C201.298,256.975 200.274,261.26 200.964,265.165 C201.654,269.071 203.797,271.118 205.749,269.738 L205.749,269.738" fill="#FFFFFF"/>
    <path d="M205.749,221.738 L206.582,221.15 L208.269,219.952 L209.972,218.748 L211.698,217.548 L213.456,216.36 L215.258,215.191 L217.114,214.049 L219.035,212.941 L221.032,211.874 L222.576,211.109 L223.63,210.617 L224.72,210.134 L225.836,209.667 L226.981,209.215 L228.153,208.781 L229.357,208.365 L230.593,207.969 L231.861,207.592 L233.164,207.237 L234.503,206.905 L235.878,206.596 L237.293,206.311 L238.746,206.052 L239.478,205.935 L239.452,205.939 L240.597,205.77 L242.855,205.495 L245.115,205.291 L247.39,205.151 L249.675,205.073 L251.968,205.054 L254.267,205.088 L256.565,205.174 L258.862,205.308 L261.152,205.485 L263.435,205.703 L265.705,205.958 L267.959,206.246 L270.196,206.564 L272.41,206.907 L274.599,207.273 L275.679,207.462 L275.65,207.457 L276.498,207.62 L278.085,207.971 L279.577,208.362 L280.993,208.795 L282.337,209.267 L283.611,209.776 L284.819,210.319 L285.962,210.893 L287.045,211.497 L288.07,212.129 L289.041,212.785 L289.961,213.466 L290.834,214.168 L291.663,214.89 L292.451,215.632 L293.202,216.39 L293.92,217.166 L294.609,217.959 L295.272,218.768 L295.912,219.592 L296.856,220.884 L298.054,222.647 L299.205,224.448 L300.35,226.306 L301.513,228.216 L302.718,230.167 L303.986,232.142 L305.338,234.117 L306.438,235.605 L307.218,236.593 L308.012,237.539 L308.84,238.464 L309.704,239.362 L310.603,240.23 L311.543,241.065 L312.522,241.864 L313.544,242.622 L314.609,243.339 L315.72,244.01 L316.879,244.635 L318.086,245.212 L319.346,245.738 L320.659,246.213 L322.028,246.635 L323.455,247.003 L324.945,247.315 L326.498,247.571 L328.117,247.768 L329.806,247.906 L331.567,247.983 L333.403,247.997 L335.317,247.948 L336.813,247.868 L337.839,247.794 L338.877,247.703 L339.938,247.596 L341.02,247.471 L342.126,247.328 L343.253,247.168 L344.403,246.99 L344.992,246.894 L344.992,246.894 C345.001,246.892 345.009,246.891 345.017,246.889 L345.017,246.889 L346.085,246.701 L348.242,246.26 L350.369,245.745 L352.45,245.162 L354.488,244.514 L356.484,243.804 L358.44,243.035 L360.357,242.212 L362.238,241.337 L364.083,240.413 L365.895,239.443 L367.675,238.432 L369.427,237.382 L371.148,236.298 L372.844,235.181 L374.515,234.036 L376.164,232.867 L377.791,231.676 L380.189,229.862 L383.337,227.395 L386.443,224.895 L389.513,222.395 L392.564,219.917 L395.612,217.487 L398.671,215.129 L400.976,213.425 L402.519,212.326 L404.084,211.25 L405.663,210.208 L407.258,209.201 L408.872,208.231 L410.507,207.302 L412.166,206.415 L413.849,205.574 L415.56,204.781 L417.302,204.039 L419.075,203.35 L420.883,202.717 L422.726,202.143 L424.609,201.63 L426.534,201.182 L428.502,200.801 L430.515,200.491 L432.577,200.253 L434.688,200.092 L436.853,200.01 L439.072,200.01 L441.347,200.096 L443.085,200.217 L444.259,200.326 L445.457,200.459 L446.671,200.615 L447.9,200.795 L449.146,200.999 L450.409,201.228 L451.688,201.482 L452.984,201.762 L454.297,202.067 L455.628,202.399 L456.977,202.757 L458.343,203.143 L459.728,203.556 L461.131,203.997 L462.554,204.466 L463.994,204.964 L465.455,205.491 L466.186,205.763 L466.186,205.763 C468.222,206.521 470.18,203.835 470.559,199.763 C470.938,195.691 469.595,191.775 467.559,191.017 L466.788,190.73 L465.272,190.183 L463.775,189.666 L462.296,189.179 L460.835,188.72 L459.392,188.29 L457.965,187.888 L456.557,187.514 L455.164,187.168 L453.789,186.848 L452.43,186.556 L451.087,186.289 L449.759,186.049 L448.448,185.835 L447.152,185.646 L445.872,185.482 L444.605,185.342 L443.346,185.226 L441.488,185.098 L439.072,185.01 L436.71,185.013 L434.402,185.103 L432.144,185.278 L429.937,185.535 L427.778,185.871 L425.665,186.283 L423.597,186.768 L421.572,187.322 L419.587,187.942 L417.643,188.626 L415.737,189.369 L413.867,190.168 L412.031,191.022 L410.228,191.924 L408.457,192.873 L406.715,193.865 L405,194.897 L403.312,195.964 L401.647,197.065 L400.006,198.194 L398.376,199.355 L395.974,201.132 L392.834,203.554 L389.744,206.018 L386.686,208.501 L383.644,210.979 L380.602,213.428 L377.538,215.831 L375.215,217.589 L373.657,218.73 L372.086,219.845 L370.5,220.933 L368.896,221.99 L367.271,223.015 L365.627,224.003 L363.957,224.953 L362.261,225.862 L360.537,226.728 L358.782,227.547 L356.993,228.317 L355.17,229.036 L353.309,229.7 L351.409,230.307 L349.466,230.854 L347.479,231.338 L345.428,231.759 L344.356,231.948 L344.381,231.944 L343.826,232.035 L342.722,232.206 L341.643,232.359 L340.589,232.495 L339.558,232.615 L338.551,232.718 L337.566,232.804 L336.613,232.874 L335.221,232.95 L333.432,232.998 L331.729,232.986 L330.109,232.918 L328.57,232.795 L327.109,232.62 L325.723,232.396 L324.409,232.125 L323.165,231.808 L321.987,231.45 L320.872,231.052 L319.819,230.618 L318.823,230.148 L317.881,229.646 L316.989,229.114 L316.143,228.552 L315.341,227.964 L314.579,227.349 L313.852,226.71 L313.155,226.045 L312.487,225.357 L311.844,224.644 L311.22,223.906 L310.63,223.166 L309.755,221.993 L308.592,220.304 L307.439,218.512 L306.274,216.625 L305.074,214.655 L303.82,212.623 L302.491,210.553 L301.084,208.495 L299.966,206.972 L299.169,205.952 L298.34,204.947 L297.475,203.958 L296.572,202.99 L295.631,202.046 L294.648,201.13 L293.623,200.243 L292.553,199.39 L291.436,198.571 L290.27,197.788 L289.054,197.045 L287.783,196.342 L286.457,195.681 L285.074,195.064 L283.63,194.492 L282.123,193.967 L280.551,193.489 L278.909,193.062 L277.215,192.688 L276.364,192.525 L276.364,192.525 C276.354,192.523 276.345,192.522 276.335,192.52 L276.335,192.52 L275.225,192.325 L272.991,191.952 L270.728,191.602 L268.438,191.277 L266.126,190.982 L263.793,190.721 L261.444,190.497 L259.08,190.314 L256.706,190.177 L254.323,190.089 L251.937,190.054 L249.548,190.076 L247.16,190.158 L244.776,190.306 L242.4,190.523 L240.049,190.811 L238.901,190.979 L238.901,190.979 C238.893,190.98 238.884,190.982 238.876,190.983 L238.876,190.983 L238.081,191.111 L236.541,191.387 L235.041,191.689 L233.577,192.019 L232.151,192.375 L230.76,192.755 L229.403,193.159 L228.08,193.584 L226.789,194.032 L225.528,194.499 L224.299,194.985 L223.098,195.489 L221.926,196.009 L220.771,196.549 L219.093,197.383 L216.956,198.529 L214.909,199.712 L212.946,200.922 L211.058,202.148 L209.236,203.379 L207.473,204.605 L205.76,205.816 L204.085,207.005 L203.251,207.595 C201.298,208.975 200.274,213.26 200.964,217.165 C201.654,221.071 203.797,223.118 205.749,221.738 L205.749,221.738" fill="#FFFFFF"/>
    <path d="M306.5,168.5 C289.931,168.5 276.5,155.069 276.5,138.5 C276.5,121.931 289.931,108.5 306.5,108.5 C323.069,108.5 336.5,121.931 336.5,138.5 C336.5,155.069 323.069,168.5 306.5,168.5 z" fill-opacity="0" stroke="#FFFFFF" stroke-width="15" stroke-linecap="round" stroke-linejoin="round"/>
  </g>
</svg>
