<?xml version="1.0" encoding="UTF-8"?>
<!DOCTYPE svg PUBLIC "-//W3C//DTD SVG 1.1//EN" "http://www.w3.org/Graphics/SVG/1.1/DTD/svg11.dtd">
<svg version="1.1" xmlns="http://www.w3.org/2000/svg" xmlns:xlink="http://www.w3.org/1999/xlink" x="0" y="0" width="512" height="512" viewBox="0, 0, 512, 512">
  <g id="Background">
    <rect x="0" y="0" width="512" height="512" fill="#000000" fill-opacity="0"/>
    <g stroke-width="1px">
      <line x1="12" y1="0" x2="12" y2="512" stroke="#B9B9B9" stroke-opacity="0.25"/>
      <line x1="24" y1="0" x2="24" y2="512" stroke="#B9B9B9" stroke-opacity="0.25"/>
      <line x1="36" y1="0" x2="36" y2="512" stroke="#B9B9B9" stroke-opacity="0.25"/>
      <line x1="48" y1="0" x2="48" y2="512" stroke="#B9B9B9" stroke-opacity="0.25"/>
      <line x1="60" y1="0" x2="60" y2="512" stroke="#B9B9B9" stroke-opacity="0.25"/>
      <line x1="72" y1="0" x2="72" y2="512" stroke="#B9B9B9" stroke-opacity="0.5"/>
      <line x1="84" y1="0" x2="84" y2="512" stroke="#B9B9B9" stroke-opacity="0.25"/>
      <line x1="96" y1="0" x2="96" y2="512" stroke="#B9B9B9" stroke-opacity="0.25"/>
      <line x1="108" y1="0" x2="108" y2="512" stroke="#B9B9B9" stroke-opacity="0.25"/>
      <line x1="120" y1="0" x2="120" y2="512" stroke="#B9B9B9" stroke-opacity="0.25"/>
      <line x1="132" y1="0" x2="132" y2="512" stroke="#B9B9B9" stroke-opacity="0.25"/>
      <line x1="144" y1="0" x2="144" y2="512" stroke="#B9B9B9" stroke-opacity="0.5"/>
      <line x1="156" y1="0" x2="156" y2="512" stroke="#B9B9B9" stroke-opacity="0.25"/>
      <line x1="168" y1="0" x2="168" y2="512" stroke="#B9B9B9" stroke-opacity="0.25"/>
      <line x1="180" y1="0" x2="180" y2="512" stroke="#B9B9B9" stroke-opacity="0.25"/>
      <line x1="192" y1="0" x2="192" y2="512" stroke="#B9B9B9" stroke-opacity="0.25"/>
      <line x1="204" y1="0" x2="204" y2="512" stroke="#B9B9B9" stroke-opacity="0.25"/>
      <line x1="216" y1="0" x2="216" y2="512" stroke="#B9B9B9" stroke-opacity="0.5"/>
      <line x1="228" y1="0" x2="228" y2="512" stroke="#B9B9B9" stroke-opacity="0.25"/>
      <line x1="240" y1="0" x2="240" y2="512" stroke="#B9B9B9" stroke-opacity="0.25"/>
      <line x1="252" y1="0" x2="252" y2="512" stroke="#B9B9B9" stroke-opacity="0.25"/>
      <line x1="264" y1="0" x2="264" y2="512" stroke="#B9B9B9" stroke-opacity="0.25"/>
      <line x1="276" y1="0" x2="276" y2="512" stroke="#B9B9B9" stroke-opacity="0.25"/>
      <line x1="288" y1="0" x2="288" y2="512" stroke="#B9B9B9" stroke-opacity="0.5"/>
      <line x1="300" y1="0" x2="300" y2="512" stroke="#B9B9B9" stroke-opacity="0.25"/>
      <line x1="312" y1="0" x2="312" y2="512" stroke="#B9B9B9" stroke-opacity="0.25"/>
      <line x1="324" y1="0" x2="324" y2="512" stroke="#B9B9B9" stroke-opacity="0.25"/>
      <line x1="336" y1="0" x2="336" y2="512" stroke="#B9B9B9" stroke-opacity="0.25"/>
      <line x1="348" y1="0" x2="348" y2="512" stroke="#B9B9B9" stroke-opacity="0.25"/>
      <line x1="360" y1="0" x2="360" y2="512" stroke="#B9B9B9" stroke-opacity="0.5"/>
      <line x1="372" y1="0" x2="372" y2="512" stroke="#B9B9B9" stroke-opacity="0.25"/>
      <line x1="384" y1="0" x2="384" y2="512" stroke="#B9B9B9" stroke-opacity="0.25"/>
      <line x1="396" y1="0" x2="396" y2="512" stroke="#B9B9B9" stroke-opacity="0.25"/>
      <line x1="408" y1="0" x2="408" y2="512" stroke="#B9B9B9" stroke-opacity="0.25"/>
      <line x1="420" y1="0" x2="420" y2="512" stroke="#B9B9B9" stroke-opacity="0.25"/>
      <line x1="432" y1="0" x2="432" y2="512" stroke="#B9B9B9" stroke-opacity="0.5"/>
      <line x1="444" y1="0" x2="444" y2="512" stroke="#B9B9B9" stroke-opacity="0.25"/>
      <line x1="456" y1="0" x2="456" y2="512" stroke="#B9B9B9" stroke-opacity="0.25"/>
      <line x1="468" y1="0" x2="468" y2="512" stroke="#B9B9B9" stroke-opacity="0.25"/>
      <line x1="480" y1="0" x2="480" y2="512" stroke="#B9B9B9" stroke-opacity="0.25"/>
      <line x1="492" y1="0" x2="492" y2="512" stroke="#B9B9B9" stroke-opacity="0.25"/>
      <line x1="504" y1="0" x2="504" y2="512" stroke="#B9B9B9" stroke-opacity="0.5"/>
      <line x1="0" y1="12" x2="512" y2="12" stroke="#B9B9B9" stroke-opacity="0.25"/>
      <line x1="0" y1="24" x2="512" y2="24" stroke="#B9B9B9" stroke-opacity="0.25"/>
      <line x1="0" y1="36" x2="512" y2="36" stroke="#B9B9B9" stroke-opacity="0.25"/>
      <line x1="0" y1="48" x2="512" y2="48" stroke="#B9B9B9" stroke-opacity="0.25"/>
      <line x1="0" y1="60" x2="512" y2="60" stroke="#B9B9B9" stroke-opacity="0.25"/>
      <line x1="0" y1="72" x2="512" y2="72" stroke="#B9B9B9" stroke-opacity="0.5"/>
      <line x1="0" y1="84" x2="512" y2="84" stroke="#B9B9B9" stroke-opacity="0.25"/>
      <line x1="0" y1="96" x2="512" y2="96" stroke="#B9B9B9" stroke-opacity="0.25"/>
      <line x1="0" y1="108" x2="512" y2="108" stroke="#B9B9B9" stroke-opacity="0.25"/>
      <line x1="0" y1="120" x2="512" y2="120" stroke="#B9B9B9" stroke-opacity="0.25"/>
      <line x1="0" y1="132" x2="512" y2="132" stroke="#B9B9B9" stroke-opacity="0.25"/>
      <line x1="0" y1="144" x2="512" y2="144" stroke="#B9B9B9" stroke-opacity="0.5"/>
      <line x1="0" y1="156" x2="512" y2="156" stroke="#B9B9B9" stroke-opacity="0.25"/>
      <line x1="0" y1="168" x2="512" y2="168" stroke="#B9B9B9" stroke-opacity="0.25"/>
      <line x1="0" y1="180" x2="512" y2="180" stroke="#B9B9B9" stroke-opacity="0.25"/>
      <line x1="0" y1="192" x2="512" y2="192" stroke="#B9B9B9" stroke-opacity="0.25"/>
      <line x1="0" y1="204" x2="512" y2="204" stroke="#B9B9B9" stroke-opacity="0.25"/>
      <line x1="0" y1="216" x2="512" y2="216" stroke="#B9B9B9" stroke-opacity="0.5"/>
      <line x1="0" y1="228" x2="512" y2="228" stroke="#B9B9B9" stroke-opacity="0.25"/>
      <line x1="0" y1="240" x2="512" y2="240" stroke="#B9B9B9" stroke-opacity="0.25"/>
      <line x1="0" y1="252" x2="512" y2="252" stroke="#B9B9B9" stroke-opacity="0.25"/>
      <line x1="0" y1="264" x2="512" y2="264" stroke="#B9B9B9" stroke-opacity="0.25"/>
      <line x1="0" y1="276" x2="512" y2="276" stroke="#B9B9B9" stroke-opacity="0.25"/>
      <line x1="0" y1="288" x2="512" y2="288" stroke="#B9B9B9" stroke-opacity="0.5"/>
      <line x1="0" y1="300" x2="512" y2="300" stroke="#B9B9B9" stroke-opacity="0.25"/>
      <line x1="0" y1="312" x2="512" y2="312" stroke="#B9B9B9" stroke-opacity="0.25"/>
      <line x1="0" y1="324" x2="512" y2="324" stroke="#B9B9B9" stroke-opacity="0.25"/>
      <line x1="0" y1="336" x2="512" y2="336" stroke="#B9B9B9" stroke-opacity="0.25"/>
      <line x1="0" y1="348" x2="512" y2="348" stroke="#B9B9B9" stroke-opacity="0.25"/>
      <line x1="0" y1="360" x2="512" y2="360" stroke="#B9B9B9" stroke-opacity="0.5"/>
      <line x1="0" y1="372" x2="512" y2="372" stroke="#B9B9B9" stroke-opacity="0.25"/>
      <line x1="0" y1="384" x2="512" y2="384" stroke="#B9B9B9" stroke-opacity="0.25"/>
      <line x1="0" y1="396" x2="512" y2="396" stroke="#B9B9B9" stroke-opacity="0.25"/>
      <line x1="0" y1="408" x2="512" y2="408" stroke="#B9B9B9" stroke-opacity="0.25"/>
      <line x1="0" y1="420" x2="512" y2="420" stroke="#B9B9B9" stroke-opacity="0.25"/>
      <line x1="0" y1="432" x2="512" y2="432" stroke="#B9B9B9" stroke-opacity="0.5"/>
      <line x1="0" y1="444" x2="512" y2="444" stroke="#B9B9B9" stroke-opacity="0.25"/>
      <line x1="0" y1="456" x2="512" y2="456" stroke="#B9B9B9" stroke-opacity="0.25"/>
      <line x1="0" y1="468" x2="512" y2="468" stroke="#B9B9B9" stroke-opacity="0.25"/>
      <line x1="0" y1="480" x2="512" y2="480" stroke="#B9B9B9" stroke-opacity="0.25"/>
      <line x1="0" y1="492" x2="512" y2="492" stroke="#B9B9B9" stroke-opacity="0.25"/>
      <line x1="0" y1="504" x2="512" y2="504" stroke="#B9B9B9" stroke-opacity="0.5"/>
    </g>
  </g>
  <g id="Layer_1">
    <g>
      <path d="M114.931,72.5 L300.419,72.5 C305.075,72.5 308.85,76.977 308.85,82.5 L308.85,422.5 C308.85,428.023 305.075,432.5 300.419,432.5 L114.931,432.5 C110.275,432.5 106.5,428.023 106.5,422.5 L106.5,82.5 C106.5,76.977 110.275,72.5 114.931,72.5" fill="#D3D3D3"/>
      <path d="M114.931,72.5 L300.419,72.5 C305.075,72.5 308.85,76.977 308.85,82.5 L308.85,422.5 C308.85,428.023 305.075,432.5 300.419,432.5 L114.931,432.5 C110.275,432.5 106.5,428.023 106.5,422.5 L106.5,82.5 C106.5,76.977 110.275,72.5 114.931,72.5" fill-opacity="0" stroke="#D3D3D3" stroke-width="15" stroke-linecap="round" stroke-linejoin="round"/>
    </g>
    <g>
      <path d="M151.467,122.5 L173.95,122.5 C180.159,122.5 185.192,126.977 185.192,132.5 L185.192,352.5 C185.192,358.023 180.159,362.5 173.95,362.5 L151.467,362.5 C145.258,362.5 140.225,358.023 140.225,352.5 L140.225,132.5 C140.225,126.977 145.258,122.5 151.467,122.5 z" fill="#FFFFFF"/>
      <path d="M151.467,122.5 L173.95,122.5 C180.159,122.5 185.192,126.977 185.192,132.5 L185.192,352.5 C185.192,358.023 180.159,362.5 173.95,362.5 L151.467,362.5 C145.258,362.5 140.225,358.023 140.225,352.5 L140.225,132.5 C140.225,126.977 145.258,122.5 151.467,122.5 z" fill-opacity="0" stroke="#000000" stroke-width="15" stroke-linecap="round" stroke-linejoin="round"/>
    </g>
    <path d="M163.835,298.125 L165.4,297.14 L167.79,295.634 L169.406,294.635 L171.053,293.645 L172.743,292.67 L174.483,291.718 L176.284,290.794 L178.155,289.903 L180.11,289.052 L181.625,288.448 L182.663,288.061 L183.736,287.685 L184.837,287.322 L185.966,286.975 L187.125,286.644 L188.315,286.33 L189.538,286.034 L190.793,285.756 L192.084,285.498 L193.411,285.261 L194.774,285.045 L195.461,284.947 L195.439,284.95 L196.511,284.81 L198.629,284.58 L200.749,284.409 L202.882,284.293 L205.026,284.228 L207.177,284.211 L209.331,284.24 L211.487,284.312 L213.639,284.423 L215.788,284.571 L217.927,284.753 L220.055,284.966 L222.169,285.206 L224.265,285.471 L226.34,285.757 L228.392,286.062 L229.404,286.22 L229.379,286.216 L230.173,286.351 L231.663,286.644 L233.063,286.971 L234.393,287.333 L235.655,287.727 L236.852,288.152 L237.986,288.605 L239.061,289.085 L240.078,289.59 L241.04,290.117 L241.952,290.666 L242.815,291.234 L243.634,291.82 L244.41,292.422 L245.149,293.039 L245.851,293.671 L246.523,294.316 L247.167,294.975 L248.105,296.008 L249.278,297.422 L250.378,298.864 L251.451,300.356 L252.52,301.899 L253.608,303.489 L254.738,305.117 L255.93,306.769 L257.203,308.423 L258.239,309.67 L258.974,310.498 L259.721,311.29 L260.499,312.063 L261.31,312.814 L262.155,313.539 L263.034,314.235 L263.951,314.899 L264.907,315.531 L265.904,316.127 L266.942,316.685 L268.025,317.205 L269.153,317.684 L270.329,318.121 L271.556,318.515 L272.835,318.866 L274.168,319.171 L275.559,319.431 L277.01,319.643 L278.524,319.807 L280.102,319.922 L281.749,319.986 L283.466,319.998 L285.257,319.957 L287.123,319.862 L289.068,319.711 L291.094,319.503 L293.205,319.237 L294.303,319.08 L294.303,319.08 C294.312,319.078 294.321,319.077 294.33,319.076 L294.33,319.076 L295.331,318.919 L297.349,318.551 L299.338,318.123 L301.285,317.638 L303.192,317.098 L305.058,316.508 L306.889,315.868 L308.682,315.183 L310.442,314.454 L312.169,313.685 L313.864,312.878 L315.531,312.036 L317.17,311.162 L318.782,310.258 L320.369,309.329 L321.934,308.375 L324.234,306.912 L327.241,304.902 L330.197,302.842 L333.106,300.759 L337.412,297.64 L341.701,294.582 L344.561,292.62 L347.455,290.731 L349.643,289.382 L351.114,288.518 L352.61,287.678 L354.123,286.869 L355.656,286.094 L357.211,285.354 L358.79,284.653 L360.395,283.991 L362.028,283.372 L363.691,282.797 L365.387,282.268 L367.118,281.789 L368.885,281.361 L370.691,280.987 L372.537,280.669 L374.427,280.41 L376.361,280.212 L378.343,280.077 L380.374,280.008 L382.456,280.009 L384.591,280.08 L386.782,280.225 L389.03,280.447 L391.337,280.748 L393.704,281.13 L395.515,281.471 L396.74,281.725 L397.987,282.001 L399.252,282.3 L400.534,282.622 L401.832,282.966 L403.148,283.334 L404.482,283.726 L405.832,284.141 L407.202,284.58 L407.887,284.807 L407.887,284.807 C409.93,285.485 411.861,282.721 412.2,278.634 C412.538,274.548 411.156,270.686 409.113,270.009 L408.391,269.77 L406.973,269.315 L405.571,268.885 L404.187,268.479 L402.82,268.097 L401.468,267.739 L400.134,267.404 L398.815,267.093 L397.512,266.804 L396.218,266.537 L394.309,266.179 L391.824,265.779 L389.399,265.465 L387.03,265.233 L384.717,265.082 L382.456,265.009 L380.247,265.011 L378.088,265.086 L375.977,265.231 L373.913,265.445 L371.893,265.725 L369.917,266.067 L367.983,266.47 L366.088,266.931 L364.233,267.447 L362.414,268.016 L360.63,268.635 L358.88,269.3 L357.163,270.01 L355.475,270.762 L353.818,271.552 L352.187,272.378 L350.581,273.237 L349,274.126 L347.434,275.047 L345.128,276.471 L342.129,278.43 L339.183,280.452 L334.859,283.535 L330.579,286.636 L327.729,288.677 L324.865,290.675 L321.961,292.618 L319.749,294.026 L318.262,294.933 L316.758,295.815 L315.236,296.669 L313.694,297.493 L312.128,298.285 L310.538,299.044 L308.921,299.766 L307.274,300.449 L305.596,301.092 L303.886,301.692 L302.14,302.246 L300.357,302.753 L298.534,303.209 L296.669,303.613 L294.745,303.964 L293.742,304.122 L293.768,304.118 L292.733,304.267 L290.71,304.523 L288.777,304.722 L286.931,304.867 L285.17,304.958 L283.492,304.998 L281.894,304.988 L280.373,304.931 L278.928,304.829 L277.555,304.683 L276.252,304.495 L275.018,304.268 L273.848,304.004 L272.741,303.704 L271.694,303.371 L270.703,303.008 L269.767,302.615 L268.881,302.195 L268.043,301.75 L267.25,301.281 L266.498,300.79 L265.782,300.278 L265.101,299.745 L264.45,299.192 L263.827,298.62 L263.226,298.029 L262.645,297.417 L262.097,296.806 L261.282,295.835 L260.199,294.436 L259.123,292.949 L258.033,291.378 L256.908,289.735 L255.729,288.036 L254.478,286.303 L253.138,284.56 L251.713,282.858 L250.574,281.613 L249.762,280.787 L248.916,279.98 L248.033,279.192 L247.112,278.429 L246.152,277.69 L245.15,276.979 L244.106,276.298 L243.015,275.647 L241.877,275.028 L240.69,274.444 L239.452,273.894 L238.159,273.381 L236.809,272.906 L235.401,272.469 L233.931,272.072 L232.396,271.716 L230.812,271.406 L230.014,271.27 L230.014,271.27 C230.006,271.268 229.997,271.267 229.989,271.265 L229.989,271.265 L228.95,271.103 L226.858,270.793 L224.739,270.501 L222.595,270.23 L220.43,269.984 L218.246,269.767 L216.046,269.58 L213.834,269.428 L211.612,269.314 L209.382,269.241 L207.148,269.211 L204.912,269.23 L202.678,269.298 L200.447,269.422 L198.224,269.602 L196.023,269.841 L194.948,269.982 L194.948,269.982 C194.941,269.983 194.934,269.984 194.926,269.985 L194.926,269.985 L194.183,270.092 L192.743,270.32 L191.339,270.572 L189.97,270.847 L188.635,271.143 L187.334,271.459 L186.065,271.795 L184.827,272.149 L183.618,272.522 L182.44,272.911 L181.289,273.315 L180.157,273.738 L178.512,274.396 L176.42,275.311 L174.418,276.265 L172.503,277.25 L170.665,278.258 L168.897,279.278 L167.19,280.304 L165.538,281.326 L163.148,282.832 L161.581,283.819 C159.606,285.064 158.509,289.276 159.132,293.226 C159.754,297.177 161.86,299.37 163.835,298.125 L163.835,298.125" fill="#000000"/>
    <path d="M163.835,258.125 L165.4,257.14 L167.79,255.634 L169.406,254.635 L171.053,253.645 L172.743,252.67 L174.483,251.718 L176.284,250.794 L178.155,249.903 L180.11,249.052 L181.625,248.448 L182.663,248.061 L183.736,247.685 L184.837,247.322 L185.966,246.975 L187.125,246.644 L188.315,246.33 L189.538,246.034 L190.793,245.756 L192.084,245.498 L193.411,245.261 L194.774,245.045 L195.461,244.947 L195.439,244.95 L196.511,244.81 L198.629,244.58 L200.749,244.409 L202.882,244.293 L205.026,244.228 L207.177,244.211 L209.331,244.24 L211.487,244.312 L213.639,244.423 L215.788,244.571 L217.927,244.753 L220.055,244.966 L222.169,245.206 L224.265,245.471 L226.34,245.757 L228.392,246.062 L229.404,246.22 L229.379,246.216 L230.173,246.351 L231.663,246.644 L233.063,246.971 L234.393,247.333 L235.655,247.727 L236.852,248.152 L237.986,248.605 L239.061,249.085 L240.078,249.59 L241.04,250.117 L241.952,250.666 L242.815,251.234 L243.634,251.82 L244.41,252.422 L245.149,253.039 L245.851,253.671 L246.523,254.316 L247.167,254.975 L248.105,256.008 L249.278,257.422 L250.379,258.864 L251.451,260.356 L252.52,261.899 L253.608,263.489 L254.738,265.117 L255.93,266.769 L257.203,268.423 L258.239,269.67 L258.974,270.498 L259.721,271.29 L260.499,272.063 L261.31,272.814 L262.155,273.539 L263.034,274.235 L263.951,274.899 L264.907,275.531 L265.904,276.127 L266.942,276.685 L268.025,277.205 L269.153,277.684 L270.329,278.121 L271.556,278.515 L272.835,278.866 L274.168,279.171 L275.559,279.431 L277.01,279.643 L278.524,279.807 L280.102,279.922 L281.749,279.986 L283.466,279.998 L285.257,279.957 L287.123,279.862 L289.068,279.711 L291.094,279.503 L293.205,279.237 L294.303,279.08 L294.303,279.08 C294.312,279.078 294.321,279.077 294.33,279.076 L294.33,279.076 L295.331,278.919 L297.349,278.551 L299.338,278.123 L301.285,277.638 L303.192,277.098 L305.058,276.508 L306.889,275.868 L308.682,275.183 L310.442,274.454 L312.169,273.685 L313.864,272.878 L315.531,272.036 L317.17,271.162 L318.782,270.258 L320.369,269.329 L321.934,268.375 L324.234,266.912 L327.241,264.902 L330.197,262.842 L333.106,260.759 L337.412,257.64 L341.701,254.582 L344.561,252.62 L347.455,250.731 L349.643,249.382 L351.114,248.518 L352.61,247.678 L354.123,246.869 L355.656,246.094 L357.211,245.354 L358.79,244.653 L360.395,243.991 L362.028,243.372 L363.691,242.797 L365.387,242.268 L367.118,241.789 L368.885,241.361 L370.691,240.987 L372.537,240.669 L374.427,240.41 L376.361,240.212 L378.343,240.077 L380.374,240.008 L382.456,240.009 L384.591,240.08 L386.782,240.225 L389.03,240.447 L391.337,240.748 L393.704,241.13 L395.515,241.471 L396.74,241.725 L397.987,242.001 L399.252,242.3 L400.534,242.622 L401.832,242.966 L403.148,243.334 L404.482,243.726 L405.832,244.141 L407.202,244.58 L407.887,244.807 L407.887,244.807 C409.93,245.485 411.861,242.721 412.2,238.634 C412.538,234.548 411.156,230.686 409.113,230.009 L408.391,229.77 L406.973,229.315 L405.571,228.885 L404.187,228.479 L402.82,228.097 L401.468,227.739 L400.134,227.404 L398.815,227.093 L397.512,226.804 L396.218,226.537 L394.309,226.179 L391.824,225.779 L389.399,225.465 L387.03,225.233 L384.717,225.082 L382.456,225.009 L380.247,225.011 L378.088,225.086 L375.977,225.231 L373.913,225.445 L371.893,225.725 L369.917,226.067 L367.983,226.47 L366.088,226.931 L364.233,227.447 L362.414,228.016 L360.63,228.635 L358.88,229.3 L357.163,230.01 L355.475,230.762 L353.818,231.552 L352.187,232.378 L350.581,233.237 L349,234.126 L347.434,235.047 L345.128,236.471 L342.129,238.43 L339.183,240.452 L334.859,243.535 L330.579,246.636 L327.729,248.677 L324.865,250.675 L321.961,252.618 L319.749,254.026 L318.262,254.933 L316.758,255.815 L315.236,256.669 L313.694,257.493 L312.128,258.285 L310.538,259.044 L308.921,259.766 L307.274,260.449 L305.596,261.092 L303.886,261.692 L302.14,262.246 L300.357,262.753 L298.534,263.209 L296.669,263.613 L294.745,263.964 L293.742,264.122 L293.768,264.118 L292.733,264.267 L290.71,264.523 L288.777,264.722 L286.931,264.867 L285.17,264.958 L283.492,264.998 L281.894,264.988 L280.373,264.931 L278.928,264.829 L277.555,264.683 L276.252,264.495 L275.018,264.268 L273.848,264.004 L272.741,263.704 L271.694,263.371 L270.703,263.008 L269.767,262.615 L268.881,262.195 L268.044,261.75 L267.25,261.281 L266.498,260.79 L265.782,260.278 L265.101,259.745 L264.45,259.192 L263.827,258.62 L263.226,258.029 L262.645,257.417 L262.097,256.806 L261.282,255.835 L260.199,254.436 L259.123,252.949 L258.033,251.378 L256.908,249.735 L255.729,248.036 L254.478,246.303 L253.138,244.56 L251.713,242.858 L250.574,241.613 L249.762,240.787 L248.916,239.98 L248.033,239.192 L247.112,238.429 L246.152,237.69 L245.15,236.979 L244.106,236.298 L243.015,235.647 L241.877,235.028 L240.69,234.444 L239.452,233.894 L238.159,233.381 L236.809,232.906 L235.401,232.469 L233.931,232.072 L232.396,231.716 L230.812,231.406 L230.014,231.27 L230.014,231.27 C230.006,231.268 229.997,231.267 229.989,231.265 L229.989,231.265 L228.95,231.103 L226.858,230.793 L224.739,230.501 L222.595,230.23 L220.43,229.984 L218.246,229.767 L216.046,229.58 L213.834,229.428 L211.612,229.314 L209.382,229.241 L207.148,229.211 L204.912,229.23 L202.678,229.298 L200.447,229.421 L198.224,229.602 L196.023,229.841 L194.948,229.982 L194.948,229.982 C194.941,229.983 194.934,229.984 194.926,229.985 L194.926,229.985 L194.183,230.092 L192.743,230.32 L191.339,230.572 L189.97,230.847 L188.635,231.143 L187.334,231.459 L186.065,231.795 L184.827,232.149 L183.618,232.522 L182.44,232.911 L181.289,233.315 L180.157,233.738 L178.512,234.396 L176.42,235.311 L174.418,236.265 L172.503,237.25 L170.665,238.258 L168.897,239.278 L167.19,240.304 L165.538,241.326 L163.148,242.832 L161.581,243.819 C159.606,245.064 158.509,249.276 159.132,253.226 C159.754,257.177 161.86,259.37 163.835,258.125 L163.835,258.125" fill="#000000"/>
    <path d="M163.835,218.125 L165.4,217.14 L167.79,215.634 L169.406,214.635 L171.053,213.645 L172.743,212.67 L174.483,211.718 L176.284,210.794 L178.155,209.903 L180.11,209.052 L181.625,208.448 L182.663,208.061 L183.736,207.685 L184.837,207.322 L185.966,206.975 L187.125,206.644 L188.315,206.33 L189.538,206.034 L190.793,205.756 L192.084,205.498 L193.411,205.261 L194.774,205.045 L195.461,204.947 L195.439,204.95 L196.511,204.81 L198.629,204.58 L200.749,204.409 L202.882,204.293 L205.026,204.228 L207.177,204.211 L209.331,204.24 L211.487,204.312 L213.639,204.423 L215.788,204.571 L217.927,204.753 L220.055,204.966 L222.169,205.206 L224.265,205.471 L226.34,205.757 L228.392,206.062 L229.404,206.22 L229.379,206.216 L230.173,206.351 L231.663,206.644 L233.063,206.971 L234.393,207.333 L235.655,207.727 L236.852,208.152 L237.986,208.605 L239.061,209.085 L240.078,209.59 L241.04,210.117 L241.952,210.666 L242.815,211.234 L243.634,211.82 L244.41,212.422 L245.149,213.039 L245.851,213.671 L246.523,214.316 L247.167,214.975 L248.105,216.008 L249.278,217.422 L250.378,218.864 L251.451,220.356 L252.52,221.899 L253.608,223.489 L254.738,225.117 L255.93,226.769 L257.203,228.423 L258.239,229.67 L258.974,230.498 L259.721,231.29 L260.499,232.063 L261.31,232.814 L262.155,233.539 L263.034,234.235 L263.951,234.899 L264.907,235.531 L265.904,236.127 L266.942,236.685 L268.025,237.205 L269.153,237.684 L270.329,238.121 L271.556,238.515 L272.835,238.866 L274.168,239.171 L275.559,239.431 L277.01,239.643 L278.524,239.807 L280.102,239.922 L281.749,239.986 L283.466,239.998 L285.257,239.957 L287.123,239.862 L289.068,239.711 L291.094,239.503 L293.205,239.237 L294.303,239.08 L294.303,239.08 C294.312,239.078 294.321,239.077 294.33,239.076 L294.33,239.076 L295.331,238.919 L297.349,238.551 L299.338,238.123 L301.285,237.638 L303.192,237.098 L305.058,236.508 L306.889,235.868 L308.682,235.183 L310.442,234.454 L312.169,233.685 L313.864,232.878 L315.531,232.036 L317.17,231.162 L318.782,230.258 L320.369,229.329 L321.934,228.375 L324.234,226.912 L327.241,224.902 L330.197,222.842 L333.106,220.759 L337.412,217.64 L341.701,214.582 L344.561,212.62 L347.455,210.731 L349.643,209.382 L351.114,208.518 L352.61,207.678 L354.123,206.869 L355.656,206.094 L357.211,205.354 L358.79,204.653 L360.395,203.991 L362.028,203.372 L363.691,202.797 L365.387,202.268 L367.118,201.789 L368.885,201.361 L370.691,200.987 L372.537,200.669 L374.427,200.41 L376.361,200.212 L378.343,200.077 L380.374,200.008 L382.456,200.009 L384.591,200.08 L386.782,200.225 L389.03,200.447 L391.337,200.748 L393.704,201.13 L395.515,201.471 L396.74,201.725 L397.987,202.001 L399.252,202.3 L400.534,202.622 L401.832,202.966 L403.148,203.334 L404.482,203.726 L405.832,204.141 L407.202,204.58 L407.887,204.807 L407.887,204.807 C409.93,205.485 411.861,202.721 412.2,198.634 C412.538,194.548 411.156,190.686 409.113,190.009 L408.391,189.77 L406.973,189.315 L405.571,188.885 L404.187,188.479 L402.82,188.097 L401.468,187.739 L400.134,187.404 L398.815,187.093 L397.512,186.804 L396.218,186.537 L394.309,186.179 L391.824,185.779 L389.399,185.465 L387.03,185.233 L384.717,185.082 L382.456,185.009 L380.247,185.011 L378.088,185.086 L375.977,185.231 L373.913,185.445 L371.893,185.725 L369.917,186.067 L367.983,186.47 L366.088,186.931 L364.233,187.447 L362.414,188.016 L360.63,188.635 L358.88,189.3 L357.163,190.01 L355.475,190.762 L353.818,191.552 L352.187,192.378 L350.581,193.237 L349,194.126 L347.434,195.047 L345.128,196.471 L342.129,198.43 L339.183,200.452 L334.859,203.535 L330.579,206.636 L327.729,208.677 L324.865,210.675 L321.961,212.618 L319.749,214.026 L318.262,214.933 L316.758,215.815 L315.236,216.669 L313.694,217.493 L312.128,218.285 L310.538,219.044 L308.921,219.766 L307.274,220.449 L305.596,221.092 L303.886,221.692 L302.14,222.246 L300.357,222.753 L298.534,223.209 L296.669,223.613 L294.745,223.964 L293.742,224.122 L293.768,224.118 L292.733,224.266 L290.71,224.523 L288.777,224.722 L286.931,224.867 L285.17,224.958 L283.492,224.998 L281.894,224.988 L280.373,224.931 L278.928,224.829 L277.555,224.683 L276.252,224.495 L275.018,224.268 L273.848,224.004 L272.741,223.704 L271.694,223.371 L270.703,223.008 L269.767,222.615 L268.881,222.195 L268.043,221.75 L267.25,221.281 L266.498,220.79 L265.782,220.278 L265.101,219.745 L264.45,219.192 L263.827,218.62 L263.226,218.029 L262.645,217.417 L262.097,216.806 L261.282,215.835 L260.199,214.436 L259.123,212.949 L258.033,211.378 L256.908,209.735 L255.729,208.036 L254.478,206.303 L253.138,204.56 L251.713,202.858 L250.574,201.613 L249.762,200.787 L248.916,199.98 L248.033,199.192 L247.112,198.429 L246.152,197.69 L245.15,196.979 L244.106,196.298 L243.015,195.647 L241.877,195.028 L240.69,194.444 L239.452,193.894 L238.159,193.381 L236.809,192.906 L235.401,192.469 L233.931,192.072 L232.396,191.716 L230.812,191.406 L230.014,191.27 L230.014,191.27 C230.006,191.268 229.997,191.267 229.989,191.265 L229.989,191.265 L228.95,191.103 L226.858,190.793 L224.739,190.501 L222.595,190.23 L220.43,189.984 L218.246,189.767 L216.046,189.58 L213.834,189.428 L211.612,189.314 L209.382,189.241 L207.148,189.211 L204.912,189.23 L202.678,189.298 L200.447,189.421 L198.224,189.602 L196.023,189.841 L194.948,189.982 L194.948,189.982 C194.941,189.983 194.934,189.984 194.926,189.985 L194.926,189.985 L194.183,190.092 L192.743,190.32 L191.339,190.572 L189.97,190.847 L188.635,191.143 L187.334,191.459 L186.065,191.795 L184.827,192.149 L183.618,192.522 L182.44,192.911 L181.289,193.315 L180.157,193.738 L178.512,194.396 L176.42,195.311 L174.418,196.265 L172.503,197.25 L170.665,198.258 L168.897,199.278 L167.19,200.304 L165.538,201.326 L163.148,202.832 L161.581,203.819 C159.606,205.064 158.509,209.276 159.132,213.226 C159.754,217.177 161.86,219.37 163.835,218.125 L163.835,218.125" fill="#000000"/>
    <g>
      <path d="M256.5,172.5 C240.979,172.5 228.396,161.307 228.396,147.5 C228.396,133.693 240.979,122.5 256.5,122.5 C272.022,122.5 284.604,133.693 284.604,147.5 C284.604,161.307 272.022,172.5 256.5,172.5 z" fill="#000000"/>
      <path d="M256.5,172.5 C240.979,172.5 228.396,161.307 228.396,147.5 C228.396,133.693 240.979,122.5 256.5,122.5 C272.022,122.5 284.604,133.693 284.604,147.5 C284.604,161.307 272.022,172.5 256.5,172.5 z" fill-opacity="0" stroke="#000000" stroke-width="15" stroke-linecap="round" stroke-linejoin="round"/>
    </g>
    <path d="M163.835,338.125 L165.4,337.14 L167.79,335.634 L169.406,334.635 L171.053,333.645 L172.743,332.67 L174.483,331.718 L176.284,330.794 L178.155,329.903 L180.11,329.052 L181.625,328.448 L182.663,328.061 L183.736,327.685 L184.837,327.322 L185.966,326.975 L187.125,326.644 L188.315,326.33 L189.538,326.034 L190.793,325.756 L192.084,325.498 L193.411,325.261 L194.774,325.045 L195.461,324.947 L195.439,324.95 L196.511,324.81 L198.629,324.58 L200.749,324.409 L202.882,324.293 L205.026,324.228 L207.177,324.211 L209.331,324.24 L211.487,324.312 L213.639,324.423 L215.788,324.571 L217.927,324.753 L220.055,324.966 L222.169,325.206 L224.265,325.471 L226.34,325.757 L228.392,326.062 L229.404,326.22 L229.379,326.216 L230.173,326.351 L231.663,326.644 L233.063,326.971 L234.393,327.333 L235.655,327.727 L236.852,328.152 L237.986,328.605 L239.061,329.085 L240.078,329.59 L241.04,330.117 L241.952,330.666 L242.815,331.234 L243.634,331.82 L244.41,332.422 L245.149,333.039 L245.851,333.671 L246.523,334.316 L247.167,334.975 L248.105,336.008 L249.278,337.422 L250.379,338.864 L251.451,340.356 L252.52,341.899 L253.608,343.489 L254.738,345.117 L255.93,346.769 L257.203,348.423 L258.239,349.67 L258.974,350.498 L259.721,351.29 L260.499,352.063 L261.31,352.814 L262.155,353.539 L263.034,354.235 L263.951,354.899 L264.907,355.531 L265.904,356.127 L266.942,356.685 L268.025,357.205 L269.153,357.684 L270.329,358.121 L271.556,358.515 L272.835,358.866 L274.168,359.171 L275.559,359.431 L277.01,359.643 L278.524,359.807 L280.102,359.922 L281.749,359.986 L283.466,359.998 L285.257,359.957 L287.123,359.862 L289.068,359.711 L291.094,359.503 L293.205,359.237 L294.303,359.08 L294.303,359.08 C294.312,359.078 294.321,359.077 294.33,359.076 L294.33,359.076 L295.331,358.919 L297.349,358.551 L299.338,358.123 L301.285,357.638 L303.192,357.098 L305.058,356.508 L306.889,355.868 L308.682,355.183 L310.442,354.454 L312.169,353.685 L313.864,352.878 L315.531,352.036 L317.17,351.162 L318.782,350.258 L320.369,349.329 L321.934,348.375 L324.234,346.912 L327.241,344.902 L330.197,342.842 L333.106,340.759 L337.412,337.64 L341.701,334.582 L344.561,332.62 L347.455,330.731 L349.643,329.382 L351.114,328.518 L352.61,327.678 L354.123,326.869 L355.656,326.094 L357.211,325.354 L358.79,324.653 L360.395,323.991 L362.028,323.372 L363.691,322.797 L365.387,322.268 L367.118,321.789 L368.885,321.361 L370.691,320.987 L372.537,320.669 L374.427,320.41 L376.361,320.212 L378.343,320.077 L380.374,320.008 L382.456,320.009 L384.591,320.08 L386.782,320.225 L389.03,320.447 L391.337,320.748 L393.704,321.13 L395.515,321.471 L396.74,321.725 L397.987,322.001 L399.252,322.3 L400.534,322.622 L401.832,322.966 L403.148,323.334 L404.482,323.726 L405.832,324.141 L407.202,324.58 L407.887,324.807 L407.887,324.807 C409.93,325.485 411.861,322.721 412.2,318.634 C412.538,314.548 411.156,310.686 409.113,310.009 L408.391,309.77 L406.973,309.315 L405.571,308.885 L404.187,308.479 L402.82,308.097 L401.468,307.739 L400.134,307.404 L398.815,307.093 L397.512,306.804 L396.218,306.537 L394.309,306.179 L391.824,305.779 L389.399,305.465 L387.03,305.233 L384.717,305.082 L382.456,305.009 L380.247,305.011 L378.088,305.086 L375.977,305.231 L373.913,305.445 L371.893,305.725 L369.917,306.067 L367.983,306.47 L366.088,306.931 L364.233,307.447 L362.414,308.016 L360.63,308.635 L358.88,309.3 L357.163,310.01 L355.475,310.762 L353.818,311.552 L352.187,312.378 L350.581,313.237 L349,314.126 L347.434,315.047 L345.128,316.471 L342.129,318.43 L339.183,320.452 L334.859,323.535 L330.579,326.636 L327.729,328.677 L324.865,330.675 L321.961,332.618 L319.749,334.026 L318.262,334.933 L316.758,335.815 L315.236,336.669 L313.694,337.493 L312.128,338.285 L310.538,339.044 L308.921,339.766 L307.274,340.449 L305.596,341.092 L303.886,341.692 L302.14,342.246 L300.357,342.753 L298.534,343.209 L296.669,343.613 L294.745,343.964 L293.742,344.122 L293.768,344.118 L292.733,344.267 L290.71,344.523 L288.777,344.722 L286.931,344.867 L285.17,344.958 L283.492,344.998 L281.894,344.988 L280.373,344.931 L278.928,344.829 L277.555,344.683 L276.252,344.495 L275.018,344.268 L273.848,344.004 L272.741,343.704 L271.694,343.371 L270.703,343.008 L269.767,342.615 L268.881,342.195 L268.043,341.75 L267.25,341.281 L266.498,340.79 L265.782,340.278 L265.101,339.745 L264.45,339.192 L263.827,338.62 L263.226,338.029 L262.645,337.417 L262.097,336.806 L261.282,335.835 L260.199,334.436 L259.123,332.949 L258.033,331.378 L256.908,329.735 L255.729,328.036 L254.478,326.303 L253.138,324.56 L251.713,322.858 L250.574,321.613 L249.762,320.787 L248.916,319.98 L248.033,319.192 L247.112,318.429 L246.152,317.69 L245.15,316.979 L244.106,316.298 L243.015,315.647 L241.877,315.028 L240.69,314.444 L239.452,313.894 L238.159,313.381 L236.809,312.906 L235.401,312.469 L233.931,312.072 L232.396,311.716 L230.812,311.406 L230.014,311.27 L230.014,311.27 C230.006,311.268 229.997,311.267 229.989,311.265 L229.989,311.265 L228.95,311.103 L226.858,310.793 L224.739,310.501 L222.595,310.23 L220.43,309.984 L218.246,309.767 L216.046,309.58 L213.834,309.428 L211.612,309.314 L209.382,309.241 L207.148,309.211 L204.912,309.23 L202.678,309.298 L200.447,309.421 L198.224,309.602 L196.023,309.841 L194.948,309.982 L194.948,309.982 C194.941,309.983 194.934,309.984 194.926,309.985 L194.926,309.985 L194.183,310.092 L192.743,310.32 L191.339,310.572 L189.97,310.847 L188.635,311.143 L187.334,311.459 L186.065,311.795 L184.827,312.149 L183.618,312.522 L182.44,312.911 L181.289,313.315 L180.157,313.738 L178.512,314.396 L176.42,315.311 L174.418,316.265 L172.503,317.25 L170.665,318.258 L168.897,319.278 L167.19,320.304 L165.538,321.326 L163.148,322.832 L161.581,323.819 C159.606,325.064 158.509,329.276 159.132,333.226 C159.754,337.177 161.86,339.37 163.835,338.125 L163.835,338.125" fill="#000000"/>
  </g>
</svg>
